<svg id="icons" xmlns="http://www.w3.org/2000/svg" viewBox="0 0 200 200"><defs><style>.cls-1{fill:#fff;opacity:0.54;}</style></defs><title>add_user_over_blue_32x32</title><path id="Trazado_18335" data-name="Trazado 18335" class="cls-1" d="M80.7,105.1A34.875,34.875,0,0,0,115.579,70.23h0A34.875,34.875,0,0,0,80.711,35.349h0A34.875,34.875,0,0,0,45.83,70.217h0A34.906,34.906,0,0,0,80.7,105.1Zm0-61.177A26.306,26.306,0,1,1,54.384,70.236,26.309,26.309,0,0,1,80.7,43.921Z"/><path id="Trazado_34254" data-name="Trazado 34254" class="cls-1" d="M97.322,115.113a138.874,138.874,0,0,0-78.147,11.751,3.812,3.812,0,0,0-1.546,5.566l.1.142a3.8,3.8,0,0,0,4.756,1.237A132.525,132.525,0,0,1,78.491,121.4a130.592,130.592,0,0,1,17.934,1.28A50.222,50.222,0,0,1,97.322,115.113Z"/><path id="Trazado_34255" data-name="Trazado 34255" class="cls-1" d="M144.082,84.884a39.884,39.884,0,1,0,39.884,39.883A39.884,39.884,0,0,0,144.082,84.884Zm18.083,42.839H147.044v15.128a2.962,2.962,0,0,1-5.924,0V127.723h-15.1a2.962,2.962,0,1,1,0-5.924h15.127V106.678a2.963,2.963,0,1,1,5.925,0V121.8H162.19a2.963,2.963,0,0,1,0,5.925Z"/></svg>