<svg id="icons" xmlns="http://www.w3.org/2000/svg" viewBox="0 0 200 200"><defs><style>.cls-1{fill:#476077;}</style></defs><title>admin_einladen_35x35</title><g id="Grupo_6507" data-name="Grupo 6507"><path id="Trazado_18335-2" data-name="Trazado 18335-2" class="cls-1" d="M88.654,105.107c18.521,0,33.538-14.784,33.541-33.026h0c0-18.24-15.006-33.03-33.525-33.035S55.132,53.829,55.129,72.071h0C55.14,90.305,70.141,105.087,88.654,105.107Zm0-57.944a24.916,24.916,0,1,1-25.3,24.918,25.105,25.105,0,0,1,25.3-24.918Z"/><path id="Trazado_36088" data-name="Trazado 36088" class="cls-1" d="M151.756,85.409c-21.181,0-38.351,16.912-38.351,37.773s17.17,37.772,38.351,37.772,38.35-16.911,38.35-37.772C190.083,102.33,172.926,85.432,151.756,85.409Zm17.391,40.56h-14.54v14.326a2.825,2.825,0,0,1-2.846,2.8h0a2.825,2.825,0,0,1-2.846-2.8h0V125.969h-14.55a2.825,2.825,0,0,1-2.846-2.8h0a2.824,2.824,0,0,1,2.84-2.808H148.91V106.037a2.824,2.824,0,0,1,2.846-2.8h0a2.824,2.824,0,0,1,2.845,2.8h0v14.321h14.54a2.825,2.825,0,0,1,2.846,2.8v0a2.824,2.824,0,0,1-2.83,2.819h-.01Z"/><path id="Trazado_36089" data-name="Trazado 36089" class="cls-1" d="M45.62,115.761A19.005,19.005,0,0,0,43.181,91.54a19.707,19.707,0,0,0-27.575,0,19,19,0,0,0,0,27.16,19.741,19.741,0,0,0,24.6,2.412l17.723,17.457-8.447,8.319,5.432,5.351,8.448-8.32,3,2.954-8.448,8.32,5.433,5.351,13.9-13.692Zm-24.592-2.413a11.514,11.514,0,0,1-.021-16.442,11.969,11.969,0,0,1,16.715,0,11.512,11.512,0,0,1,0,16.463,11.959,11.959,0,0,1-16.715-.021Z"/><g id="Grupo_6506" data-name="Grupo 6506"><path id="Trazado_36090" data-name="Trazado 36090" class="cls-1" d="M55.557,116.276l6.251,6.167a129.469,129.469,0,0,1,24.729-2.392,127.657,127.657,0,0,1,17.254,1.212,46.844,46.844,0,0,1,.855-7.208A135.707,135.707,0,0,0,55.557,116.276Z"/></g></g></svg>