<svg xmlns="http://www.w3.org/2000/svg" viewBox="0 0 200 200"><defs><style>.cls-1{fill:#476077;}</style></defs><title>blackboard-icon-gray</title><g id="Action_3" data-name="Action 3"><path class="cls-1" d="M135.441,159.124v4.086H43.866V75.865h4.086a4.5,4.5,0,0,0,4.5-4.5h0a4.5,4.5,0,0,0-4.5-4.5H39.366a4.5,4.5,0,0,0-4.5,4.5V167.71a4.5,4.5,0,0,0,4.5,4.5H139.941a4.5,4.5,0,0,0,4.5-4.5v-8.586a4.5,4.5,0,0,0-4.5-4.5h0A4.5,4.5,0,0,0,135.441,159.124Z"/><path class="cls-1" d="M160.634,46.805h-3.911a17.964,17.964,0,0,1-4.746,8.447c-.2.2-.407.368-.61.553h4.767V143.15H64.559V55.805h44.234l8.072-8.07c-.094-.308-.172-.619-.249-.93H60.059a4.5,4.5,0,0,0-4.5,4.5V147.65a4.5,4.5,0,0,0,4.5,4.5H160.634a4.5,4.5,0,0,0,4.5-4.5V51.305A4.5,4.5,0,0,0,160.634,46.805Z"/><path class="cls-1" d="M146.636,31.984a14.312,14.312,0,0,0-22.578,17.171L109.966,63.247a3.823,3.823,0,1,0,5.406,5.406l14.092-14.091a14.313,14.313,0,0,0,17.172-22.578Z"/></g></svg>