<svg id="icons" xmlns="http://www.w3.org/2000/svg" viewBox="0 0 200 200"><defs><style>.cls-1{fill:#476077;}</style></defs><title>broadcast_einladen_35x35</title><g id="Grupo_6446" data-name="Grupo 6446"><path id="Trazado_34560" data-name="Trazado 34560" class="cls-1" d="M145.617,77.766c-20.83,0-37.716,16.591-37.716,37.057s16.886,37.056,37.716,37.056,37.716-16.591,37.716-37.056C183.31,94.366,166.438,77.789,145.617,77.766Zm17.12,39.8h-14.3v14.058a2.778,2.778,0,0,1-2.8,2.753h0a2.778,2.778,0,0,1-2.8-2.753h0V117.56h-14.3a2.778,2.778,0,0,1-2.8-2.753h0a2.777,2.777,0,0,1,2.8-2.752h14.3V98.007a2.778,2.778,0,0,1,2.8-2.752h0a2.771,2.771,0,0,1,2.8,2.742v14.058h14.3a2.777,2.777,0,0,1,2.8,2.752h0a2.778,2.778,0,0,1-2.8,2.753h-.02Z"/><g id="Grupo_6443" data-name="Grupo 6443"><path id="Trazado_34561" data-name="Trazado 34561" class="cls-1" d="M127.47,65.793a47.986,47.986,0,0,1,11.553-1.407h.581A95.234,95.234,0,0,0,18.389,76.665a3.675,3.675,0,0,0,.111,5.261c.037.035.074.068.112.1h0a3.8,3.8,0,0,0,5.188-.188A87.651,87.651,0,0,1,127.47,65.793Z"/><path id="Trazado_34562" data-name="Trazado 34562" class="cls-1" d="M101.6,82.552a46.763,46.763,0,0,1,5.707-6.116,69.57,69.57,0,0,0-69.752,16.81,3.666,3.666,0,0,0,.054,5.248c.049.046.1.091.149.135h0a3.8,3.8,0,0,0,5.156-.163A61.69,61.69,0,0,1,101.6,82.552Z"/><path id="Trazado_34563" data-name="Trazado 34563" class="cls-1" d="M93.479,98.756a44.26,44.26,0,0,0-7.123-.586,43.644,43.644,0,0,0-29.571,11.469,3.685,3.685,0,0,0-.247,5.271c.088.094.181.184.278.269h0a3.846,3.846,0,0,0,5.12-.122,36.038,36.038,0,0,1,24.42-9.471,36.7,36.7,0,0,1,5.763.464A45.578,45.578,0,0,1,93.479,98.756Z"/></g></g></svg>