<svg xmlns="http://www.w3.org/2000/svg" viewBox="0 0 200 200"><defs><style>.cls-1{fill:none;}.cls-2{fill:#476077;}</style></defs><title>chat-contact-list</title><g id="icons"><rect class="cls-1" width="200" height="200"/></g><g id="Action_3" data-name="Action 3"><path class="cls-2" d="M154.37,170.9a4.5,4.5,0,0,1-3.915-2.28L134.12,139.812H77.033a4.5,4.5,0,0,1,0-9h59.708a4.5,4.5,0,0,1,3.915,2.281l9.214,16.251V135.312a4.5,4.5,0,0,1,4.5-4.5h8.49V58.237h-8.434a4.5,4.5,0,0,1,0-9H167.36a4.5,4.5,0,0,1,4.5,4.5v81.575a4.5,4.5,0,0,1-4.5,4.5h-8.49V166.4a4.5,4.5,0,0,1-4.5,4.5Z"/><path class="cls-2" d="M45.631,150.763a4.5,4.5,0,0,1-4.5-4.5V119.671H32.64a4.5,4.5,0,0,1-4.5-4.5V33.6a4.5,4.5,0,0,1,4.5-4.5H134.984a4.5,4.5,0,0,1,4.5,4.5v81.575a4.5,4.5,0,0,1-4.5,4.5H65.229L49.582,148.414A4.5,4.5,0,0,1,45.631,150.763ZM37.14,110.671h8.49a4.5,4.5,0,0,1,4.5,4.5v13.413L58.6,113.02a4.5,4.5,0,0,1,3.952-2.349h67.929V38.1H37.14Z"/></g></svg>