<svg id="icons" xmlns="http://www.w3.org/2000/svg" viewBox="0 0 200 200"><defs><style>.cls-1{fill:#fff;}</style></defs><title>check 24x24</title><path id="Trazado_33631" data-name="Trazado 33631" class="cls-1" d="M69.813,47a53,53,0,1,0,53,53.011V100A53.066,53.066,0,0,0,69.813,47Zm0,98.778A45.775,45.775,0,1,1,115.58,99.992V100A45.822,45.822,0,0,1,69.813,145.775Z"/><path id="Trazado_33632" data-name="Trazado 33632" class="cls-1" d="M91.7,80.862a3.62,3.62,0,0,0-5.073.67l-22.681,29.6c-6.5-8.361-14.192-18.428-15.221-20.16a3.622,3.622,0,0,0-6.741,2.609,194.721,194.721,0,0,0,19.146,25.7,3.624,3.624,0,0,0,2.848,1.388h0a3.637,3.637,0,0,0,2.856-1.412L92.365,85.944a3.622,3.622,0,0,0-.659-5.08Z"/></svg>