<svg id="icons" xmlns="http://www.w3.org/2000/svg" viewBox="0 0 200 200"><defs><style>.cls-1{fill:#41d794;}.cls-2{fill:#fff;fill-rule:evenodd;}</style></defs><title>checkbox-checked-200</title><rect class="cls-1" x="16.73" y="16.73" width="166.603" height="166.603" rx="18"/><path class="cls-2" d="M78.623,143.845,37.884,104.67a4,4,0,0,1,0-5.767l7.252-6.972a4,4,0,0,1,5.544,0L78.623,118.8a4,4,0,0,0,5.545,0L149.32,56.155a4,4,0,0,1,5.544,0l7.252,6.972a4,4,0,0,1,0,5.767L84.168,143.845A4,4,0,0,1,78.623,143.845Z"/></svg>