<svg id="icons" xmlns="http://www.w3.org/2000/svg" viewBox="0 0 200 200"><defs><style>.cls-1{fill:#476077;}</style></defs><title>contact_list_35x35</title><path class="cls-1" d="M104.175,117.18a33.025,33.025,0,1,0-33.02-33.031v.011A33.056,33.056,0,0,0,104.175,117.18Zm0-57.938A24.913,24.913,0,1,1,79.256,84.16,24.913,24.913,0,0,1,104.175,59.242Z"/><path class="cls-1" d="M158.229,16.73H48.3a8.569,8.569,0,0,0-8.555,8.561V35.486H33.291a4.076,4.076,0,1,0,0,8.152h6.457V75.6H33.291a4.076,4.076,0,1,0,0,8.152h6.457v31.961H33.291a4.076,4.076,0,1,0,0,8.152h6.457v31.961H33.291a4.076,4.076,0,1,0,0,8.152h6.457v10.864A8.565,8.565,0,0,0,48.3,183.4H158.229a8.565,8.565,0,0,0,8.556-8.556V25.291A8.57,8.57,0,0,0,158.229,16.73ZM54.359,115.712H47.9V83.751h6.459a4.076,4.076,0,1,0,0-8.152H47.9V43.638h6.459a4.076,4.076,0,1,0,0-8.152H47.9V25.291a.408.408,0,0,1,.4-.409H158.229a.408.408,0,0,1,.4.409V137.86A131.476,131.476,0,0,0,47.9,136.382V123.864h6.459a4.076,4.076,0,1,0,0-8.152Zm103.87,59.533H48.3a.4.4,0,0,1-.4-.4V163.977h6.459a4.076,4.076,0,0,0,0-8.152H47.9V144.181a3.669,3.669,0,0,0,1.148-.309,125.52,125.52,0,0,1,53.039-11.753,123.835,123.835,0,0,1,55.345,13.168,3.645,3.645,0,0,0,1.2.356v29.2A.4.4,0,0,1,158.229,175.245Z"/></svg>