<svg id="icons" xmlns="http://www.w3.org/2000/svg" viewBox="0 0 200 200"><defs><style>.cls-1{fill:#fff;}</style></defs><title>double-check 24x24</title><path id="Trazado_33631" data-name="Trazado 33631" class="cls-1" d="M130.772,47a53,53,0,1,0,53,53.011V100A53.067,53.067,0,0,0,130.772,47Zm0,98.779A45.776,45.776,0,1,1,176.54,99.992V100A45.825,45.825,0,0,1,130.772,145.776Z"/><path id="Trazado_33632" data-name="Trazado 33632" class="cls-1" d="M152.663,80.862a3.622,3.622,0,0,0-5.074.67l-22.68,29.6c-6.5-8.361-14.193-18.428-15.222-20.159a3.622,3.622,0,0,0-6.741,2.608,194.574,194.574,0,0,0,19.147,25.7,3.618,3.618,0,0,0,2.848,1.388h0a3.637,3.637,0,0,0,2.856-1.412l25.528-33.306a3.624,3.624,0,0,0-.659-5.08Z"/><path class="cls-1" d="M89.064,141.462a45.767,45.767,0,1,1,.012-82.936A58.984,58.984,0,0,1,95,53.389a52.989,52.989,0,1,0,.022,93.238A59.042,59.042,0,0,1,89.064,141.462Z"/><path class="cls-1" d="M72.818,99.991c0-.157.023-.31.024-.467l-8.893,11.605c-6.5-8.361-14.192-18.429-15.221-20.16a3.622,3.622,0,0,0-6.741,2.609,194.721,194.721,0,0,0,19.146,25.7,3.605,3.605,0,0,0,5.7-.024l6.928-9.038A58.84,58.84,0,0,1,72.818,99.991Z"/></svg>