<svg id="icons" xmlns="http://www.w3.org/2000/svg" viewBox="0 0 200 200"><defs><style>.cls-1{fill:#005af4;}</style></defs><title>edit-blue</title><path id="Trazado_53452" data-name="Trazado 53452" class="cls-1" d="M42.666,157.221h0l3.823-13.729,3.824-13.752L87.545,92.774l37.237-36.966,3.263,3.246,3.275,3.269L56.863,136.255l4.806,4.777,1.732,1.732,74.475-73.931,3.078,3.021,3.466,3.465L69.934,149.2Z"/><path id="Trazado_53453" data-name="Trazado 53453" class="cls-1" d="M148.1,71.605h0L128.5,52.094l2.709-3.061,3.015-3.465a9.714,9.714,0,0,1,13.625,0l6.787,6.792a9.187,9.187,0,0,1,1.871,2.813,9.889,9.889,0,0,1-1.871,10.76l-6.539,5.661Z"/></svg>