<svg id="icons" xmlns="http://www.w3.org/2000/svg" viewBox="0 0 200 200"><defs><style>.cls-1{fill:#fff;}.cls-2{fill:#158ccf;}.cls-3{fill:#41d794;}</style></defs><title>icon-picture-add-user</title><circle class="cls-1" cx="91.582" cy="100" r="75"/><g id="Grupo_6110" data-name="Grupo 6110"><g id="Grupo_5884" data-name="Grupo 5884"><path id="Trazado_18366-2" data-name="Trazado 18366-2" class="cls-2" d="M158.456,125.076a24.962,24.962,0,1,0,24.962,24.962A24.962,24.962,0,0,0,158.456,125.076Z"/></g><path class="cls-1" d="M169.775,148.183H160.31v-9.464a1.853,1.853,0,0,0-3.706,0v9.464h-9.467a1.854,1.854,0,0,0,0,3.707H156.6v9.467a1.853,1.853,0,0,0,3.706,0V151.89h9.465a1.854,1.854,0,0,0,0-3.707Z"/></g><g id="Grupo_5937" data-name="Grupo 5937"><g id="Grupo_5789" data-name="Grupo 5789"><path id="Trazado_18335" data-name="Trazado 18335" class="cls-3" d="M92.243,111.7A24.051,24.051,0,1,0,68.2,87.644v.009A24.072,24.072,0,0,0,92.243,111.7Zm0-42.194A18.143,18.143,0,1,1,74.1,87.653,18.143,18.143,0,0,1,92.243,69.506Z"/><path id="Trazado_18336" data-name="Trazado 18336" class="cls-3" d="M134.368,131.353a2.634,2.634,0,0,1-3.339.817,90.178,90.178,0,0,0-40.306-9.59A91.407,91.407,0,0,0,52.1,131.139a2.619,2.619,0,0,1-3.281-.868l-.067-.1a2.628,2.628,0,0,1,1.066-3.861,95.8,95.8,0,0,1,83.591,1.151,2.622,2.622,0,0,1,.994,3.848Z"/></g></g></svg>