<svg id="icons" xmlns="http://www.w3.org/2000/svg" viewBox="0 0 200 200"><defs><style>.cls-1{fill:#fff;}.cls-2{fill:#158ccf;}.cls-3{fill:#33d49b;}</style></defs><title>icon-picture-add-firma </title><circle class="cls-1" cx="91.582" cy="100" r="75"/><g id="Grupo_6110" data-name="Grupo 6110"><g id="Grupo_5884" data-name="Grupo 5884"><path id="Trazado_18366-2" data-name="Trazado 18366-2" class="cls-2" d="M158.456,125.076a24.962,24.962,0,1,0,24.962,24.962A24.962,24.962,0,0,0,158.456,125.076Z"/></g><path class="cls-1" d="M169.775,148.183H160.31v-9.464a1.853,1.853,0,0,0-3.706,0v9.464h-9.467a1.854,1.854,0,0,0,0,3.707H156.6v9.467a1.853,1.853,0,0,0,3.706,0V151.89h9.465a1.854,1.854,0,0,0,0-3.707Z"/></g><path id="Trazado_46133" data-name="Trazado 46133" class="cls-3" d="M130.912,90.191,91.579,62.486,52.249,90.191a2.752,2.752,0,0,0-.668,3.834l0,0a2.754,2.754,0,0,0,3.836.67l0,0,3.23-2.276v45.546h65.731V92.332l3.356,2.366a2.755,2.755,0,0,0,3.178-4.5ZM118.87,132.455H64.161V88.538l27.414-19.31,27.291,19.22Z"/></svg>