<svg id="icons" xmlns="http://www.w3.org/2000/svg" viewBox="0 0 200 200"><defs><style>.cls-1{fill:#33d49b;}</style></defs><title>icon-picture-broadcast</title><g id="Grupo_6450" data-name="Grupo 6450"><path id="Trazado_34564" data-name="Trazado 34564" class="cls-1" d="M32.311,99.816a3.739,3.739,0,0,0,5.167-.192,86.281,86.281,0,0,1,125.02.361,3.739,3.739,0,0,0,5.167.219h0a3.772,3.772,0,0,0,.356-5.322c-.034-.039-.068-.077-.1-.114A93.763,93.763,0,0,0,32.1,94.4a3.772,3.772,0,0,0,.107,5.333c.038.036.076.072.115.106Z"/><path id="Trazado_34565" data-name="Trazado 34565" class="cls-1" d="M99.82,116.19a43.063,43.063,0,0,0-29.464,11.631,3.785,3.785,0,0,0-.242,5.348,3.594,3.594,0,0,0,.27.268h0a3.785,3.785,0,0,0,5.1-.125,35.645,35.645,0,0,1,48.806.153,3.786,3.786,0,0,0,5.1.15h0a3.784,3.784,0,0,0,.329-5.34c-.086-.1-.176-.189-.271-.277A43.06,43.06,0,0,0,99.82,116.19Z"/><path id="Trazado_34566" data-name="Trazado 34566" class="cls-1" d="M99.818,90.9A68.29,68.29,0,0,0,51.19,111.214a3.761,3.761,0,0,0,.054,5.318c.048.047.1.093.148.137h0a3.74,3.74,0,0,0,5.139-.169,60.883,60.883,0,0,1,86.8.236,3.743,3.743,0,0,0,5.137.2h0a3.761,3.761,0,0,0,.37-5.306c-.044-.051-.09-.1-.137-.149A68.292,68.292,0,0,0,99.818,90.9Z"/></g></svg>