<svg id="icons" xmlns="http://www.w3.org/2000/svg" viewBox="0 0 200 200"><defs><style>.cls-1{fill:#41d794;}</style></defs><title>icon-picture-user</title><g id="Grupo_5937" data-name="Grupo 5937"><g id="Grupo_5789" data-name="Grupo 5789"><path id="Trazado_18335" data-name="Trazado 18335" class="cls-1" d="M100.772,115.957A28.069,28.069,0,1,0,72.708,87.884v.01A28.093,28.093,0,0,0,100.772,115.957Zm0-49.242A21.174,21.174,0,1,1,79.593,87.894,21.174,21.174,0,0,1,100.772,66.715Z"/><path id="Trazado_18336" data-name="Trazado 18336" class="cls-1" d="M149.933,138.894a3.074,3.074,0,0,1-3.9.953A105.232,105.232,0,0,0,99,128.655a106.68,106.68,0,0,0-45.079,9.989,3.057,3.057,0,0,1-3.829-1.014l-.078-.115a3.067,3.067,0,0,1,1.244-4.506,111.8,111.8,0,0,1,97.554,1.343,3.06,3.06,0,0,1,1.16,4.491Z"/></g></g></svg>