<svg id="icons" xmlns="http://www.w3.org/2000/svg" viewBox="0 0 200 200"><defs><style>.cls-1{fill:#fff;}.cls-2{fill:#33d49b;}.cls-3{fill:#158ccf;}</style></defs><title>icon-picture-add-broadcast</title><circle class="cls-1" cx="91.582" cy="100" r="75"/><g id="Grupo_6450" data-name="Grupo 6450"><path id="Trazado_34564" data-name="Trazado 34564" class="cls-2" d="M43.5,100.3a2.633,2.633,0,0,0,3.639-.135,60.775,60.775,0,0,1,88.062.254,2.632,2.632,0,0,0,3.639.154h0a2.655,2.655,0,0,0,.251-3.748c-.024-.028-.048-.054-.073-.08a66.046,66.046,0,0,0-95.669-.262,2.657,2.657,0,0,0,.076,3.756c.026.026.053.05.081.075Z"/><path id="Trazado_34565" data-name="Trazado 34565" class="cls-2" d="M91.049,111.83A30.336,30.336,0,0,0,70.3,120.023a2.667,2.667,0,0,0-.171,3.768,2.591,2.591,0,0,0,.19.188h0a2.667,2.667,0,0,0,3.6-.088,25.107,25.107,0,0,1,34.378.108,2.665,2.665,0,0,0,3.592.105h0a2.665,2.665,0,0,0,.232-3.761,2.7,2.7,0,0,0-.191-.2A30.334,30.334,0,0,0,91.049,111.83Z"/><path id="Trazado_34566" data-name="Trazado 34566" class="cls-2" d="M91.047,94.018a48.108,48.108,0,0,0-34.253,14.308,2.649,2.649,0,0,0,.039,3.746c.034.033.068.065.1.1h0a2.636,2.636,0,0,0,3.62-.119,42.884,42.884,0,0,1,61.142.166,2.635,2.635,0,0,0,3.618.139h0a2.649,2.649,0,0,0,.261-3.737c-.031-.036-.064-.071-.1-.106A48.11,48.11,0,0,0,91.047,94.018Z"/></g><g id="Grupo_6110" data-name="Grupo 6110"><g id="Grupo_5884" data-name="Grupo 5884"><path id="Trazado_18366-2" data-name="Trazado 18366-2" class="cls-3" d="M158.456,125.076a24.962,24.962,0,1,0,24.962,24.962A24.962,24.962,0,0,0,158.456,125.076Z"/></g><path class="cls-1" d="M169.775,148.183H160.31v-9.464a1.853,1.853,0,0,0-3.706,0v9.464h-9.467a1.854,1.854,0,0,0,0,3.707H156.6v9.467a1.853,1.853,0,0,0,3.706,0V151.89h9.465a1.854,1.854,0,0,0,0-3.707Z"/></g></svg>