<svg id="icons" xmlns="http://www.w3.org/2000/svg" viewBox="0 0 200 200"><defs><style>.cls-1{fill:#fff;fill-rule:evenodd;opacity:0.54;isolation:isolate;}</style></defs><title>link</title><path class="cls-1" d="M67.057,166.814a33.872,33.872,0,0,1-23.952-57.825l26.35-26.352a33.875,33.875,0,0,1,47.9,0,29.757,29.757,0,0,1,3.753,4.628L112.568,95.8a20.967,20.967,0,0,0-3.582-4.792,22.042,22.042,0,0,0-31.152,0L51.48,117.363a22.031,22.031,0,0,0,31.153,31.16l7.852-7.854a49.283,49.283,0,0,0,14.209,2.543L91.01,156.9A33.661,33.661,0,0,1,67.057,166.814Zm39.529-39.528a33.641,33.641,0,0,1-23.951-9.923,30.059,30.059,0,0,1-3.747-4.629l8.54-8.539a20.92,20.92,0,0,0,3.583,4.792,22.043,22.043,0,0,0,31.149,0l26.351-26.351a22.028,22.028,0,0,0-31.15-31.155l-7.846,7.853A49.241,49.241,0,0,0,95.3,56.789l13.682-13.683a33.876,33.876,0,0,1,47.909,47.906l-26.359,26.35A33.635,33.635,0,0,1,106.586,127.286Z"/></svg>