<svg xmlns="http://www.w3.org/2000/svg" viewBox="0 0 200 200"><defs><style>.cls-1{fill:#fff;}</style></defs><title>message_white</title><g id="Action_3" data-name="Action 3"><path id="compose" class="cls-1" d="M154.68,183.333H16.667V45.284H125.59l-7.261,7.266h-94.4V176.068H147.419V81.613l7.261-7.266Zm-81.8-56.476h0l3.681-13.224,3.682-13.246,35.85-35.6,35.858-35.6,3.144,3.124,3.152,3.146-71.7,71.205,4.626,4.6,1.662,1.664,71.716-71.205,2.963,2.907,3.34,3.313-71.708,71.2ZM174.41,44.412h0L155.53,25.623l2.607-2.95,2.9-3.321a9.357,9.357,0,0,1,13.122,0l6.536,6.54a8.842,8.842,0,0,1,1.8,2.71,9.523,9.523,0,0,1-1.8,10.361l-6.3,5.449Z"/></g></svg>