<svg id="icons" xmlns="http://www.w3.org/2000/svg" viewBox="0 0 200 200"><defs><style>.cls-1{fill:#476077;}</style></defs><title>order-up</title><rect class="cls-1" x="16.667" y="58.333" width="110.464" height="8.333" rx="4.167"/><rect class="cls-1" x="16.667" y="100" width="110.464" height="8.333" rx="4.167"/><rect class="cls-1" x="16.667" y="141.667" width="110.464" height="8.333" rx="4.167"/><path class="cls-1" d="M182.328,80.191,154.187,49.929,126.053,80.191a3.754,3.754,0,0,0,.191,5.3h0a3.755,3.755,0,0,0,5.311-.192l18.886-20.323v85.665a3.815,3.815,0,0,0,2.97,3.773,3.758,3.758,0,0,0,4.536-3.674V64.994l18.88,20.311a3.755,3.755,0,0,0,5.31.191h0A3.754,3.754,0,0,0,182.328,80.191Z"/></svg>