<svg id="icons" xmlns="http://www.w3.org/2000/svg" viewBox="0 0 200 200"><defs><style>.cls-1{fill:#476077;}</style></defs><title> order-down</title><rect class="cls-1" x="16.667" y="58.333" width="110.464" height="8.333" rx="4.167"/><rect class="cls-1" x="16.667" y="100" width="110.464" height="8.333" rx="4.167"/><rect class="cls-1" x="16.667" y="141.667" width="110.464" height="8.333" rx="4.167"/><path class="cls-1" d="M126.053,124.237,154.194,154.5l28.134-30.261a3.756,3.756,0,0,0-.191-5.306h0a3.755,3.755,0,0,0-5.31.192L157.94,139.447V53.781a3.813,3.813,0,0,0-2.97-3.772,3.757,3.757,0,0,0-4.536,3.673v85.751l-18.88-20.311a3.755,3.755,0,0,0-5.31-.191h0A3.756,3.756,0,0,0,126.053,124.237Z"/></svg>