<svg xmlns="http://www.w3.org/2000/svg" xmlns:xlink="http://www.w3.org/1999/xlink" viewBox="0 0 200 200"><defs><style>.cls-1{fill:#272524;}.cls-2{fill:#2a2828;}.cls-3{fill:#221f1f;}.cls-4{fill:#1d1d1b;opacity:0.32;isolation:isolate;}.cls-5{fill:url(#Degradado_sin_nombre_4);}.cls-6{fill:url(#Degradado_sin_nombre_3);}</style><radialGradient id="Degradado_sin_nombre_4" cx="-1494.25" cy="-1213.173" fx="-1467.0473366216625" r="34.091" gradientTransform="matrix(0.576, -0.817, -0.774, -0.546, 32.544, -1798.351)" gradientUnits="userSpaceOnUse"><stop offset="0.615" stop-color="#fe9197"/><stop offset="0.643" stop-color="#f8757c"/><stop offset="0.696" stop-color="#ee454f"/><stop offset="0.743" stop-color="#e7222e"/><stop offset="0.781" stop-color="#e30d1a"/><stop offset="0.806" stop-color="#e20613"/></radialGradient><radialGradient id="Degradado_sin_nombre_3" cx="-1494.25" cy="-1213.173" fx="-1467.0473366216625" r="34.091" gradientTransform="matrix(0.576, -0.817, -0.774, -0.546, 32.544, -1798.351)" gradientUnits="userSpaceOnUse"><stop offset="0.818" stop-color="#fc898f" stop-opacity="0"/><stop offset="0.849" stop-color="#ef7e85" stop-opacity="0.078"/><stop offset="0.896" stop-color="#cd616a" stop-opacity="0.298"/><stop offset="0.953" stop-color="#96333d" stop-opacity="0.655"/><stop offset="1" stop-color="#600613"/></radialGradient></defs><title>pin-button</title><g id="Capa_1" data-name="Capa 1"><rect width="200" height="200"/><path class="cls-1" d="M199.271,58.646c-1.506-.523-3.211,1.663-4.753-.717-1.025-1.58-1.928.479-2.71,1.065-2.475,1.854-4.42,1.27-4.911-1.567-.89-5.147-5.694-4.508-8.757-6.362-.959-.58-2.066.706-1.622,1.863.517,1.346-1.291,4.027,2,3.908,2.5-.091,4.774-.127,5.034,3.343.091,1.223,1.607,1.028,2.6,1.211,1.287.238,2.554.936,2.134,2.285-.562,1.8-2.4,3.021-.232,5.381.745.812-2.046,1.146-3.416.8-1.311-.336-1.722-2.988-3.583-1.724-3,2.04-7.276,2.047-9.287,5.568-1.123,1.966-1.658,2.813-4.233,1.232-2.919-1.792-5.55,1.494-8.282,2.445-1.7.592-.624,2.981-.336,4.766.529,3.269-1.324,6.1-3.86,7.8-2.392,1.6-5.452,2.845-7.808-.612-1.586-2.327-4.2-3.454-6.585-4.349-2.158-.81-5.512-1.95-5.036,3.142.287,3.08-2.109,2.831-4.356,1.905-1.981-.816-5.269-5.186-4.7,1.86.141,1.754-3.383,3.741-5.57,3.811-2.443.078-3.045-2.157-2.29-4.632.831-2.725.115-4.691-3.242-4.825-2.234-.089-4.01-1.966-6.377-1.722-2.215.228-4.006.521-2.354,3.477,1.629,2.914-.162,4.87-2.5,6.083-1.166.605-3.3.916-4.082-.457-.858-1.5.905-2.209,2.072-2.773.869-.419,1.623-.851,1.358-1.947a3.144,3.144,0,0,0-2.014-2.22c-1.325-.513-1.943.25-2.168,1.436-.291,1.53-1.405,1.736-2.665,1.755-.073-1.256.244-2.61-.911-3.591a2.5,2.5,0,0,1,1.665-2.409c4.743-1.438,6.148-4.842,4.069-9.633a44.135,44.135,0,0,1-1.419-4.674c-.333-1.086-.973-1.975-2.218-1.68a1.575,1.575,0,0,0-.9,2.515c2.656,4.595-2.606,5.922-3.752,8.933-.419,1.1-2.727,1.118-3.745-.528-.924-1.494-1.341-3.061.518-4.256.623-.4,1.313-.693,1.96-1.058,1.391-.784,3.451-1.411,2.543-3.488-.946-2.162-2.8-1.669-4.522-.653-2.8,1.648-3.773.187-3.987-2.435a11.146,11.146,0,0,1,1.246-6.463c.435-.792.641-1.8-.4-2.307a1.555,1.555,0,0,0-2.2.923c-1.31,3.582-3.413,7.158-1.6,11.1,1.507,3.28,2.245,6.118-1.576,8.363-1.151.676-.771,2.14-.836,3.306l0,0a10.471,10.471,0,0,1-4.722-.967c-2.721-1.133-5.5-2.294-8.106.483-.509.541-1.662.488-2.524.68-.807.178-1.774.794-2.2-.492a1.667,1.667,0,0,1,.832-1.9c1.979-1.379,4.737-1.559,5.841-4.354.358-.905,1.509-.067,1.985.779,1,1.786,2.432,1.315,3.837.668.925-.426,2.1-.843,1.949-2.116a3.447,3.447,0,0,0-3.039-2.868c-4.283-.71-8.812-2.194-12.2,2.261-.418.55-1.4,1.4-1.608,1.274-5.248-3.163-10.307,1.385-15.468.312-1.084-.226-2.824.549-3.1-.882-.376-1.956,1.657-1.559,2.793-1.948,1.67-.572,2.662-1.206,2.366-3.477-.551-4.238.816-5,4.746-3.1A12.536,12.536,0,0,1,56.3,69.27c2.047,2.368,4.725,1.689,5.494-1.376.445-1.775.42-3.574,2.767-3.916.937-.137,1.83-.565,1.446-1.716-.343-1.029-1.414-.86-2.278-.935.3-.905,1.106-2-.379-2.493a3.484,3.484,0,0,0-3.318.273c-1.233.986-.23,2.077.126,3.107-.509,1.014-.8,2.272-1.584,2.976-.93.833-2.8.762-2.3-.861.837-2.7-1.077-4.383-1.477-6.567a26.961,26.961,0,0,0,3.412-.85c3.963-1.537,7.72-3.031,11.12,1.373,1.543,2,2.9,1.364,3.4-1.32.444-2.376.911-5.979,3.73-5.759,3.633.284,6.129-3.648,9.9-1.9.665.308,1.743-1.052,2.077-2.058A6.968,6.968,0,0,1,90.526,43.9c2.4-1.982,3.361-3.913.729-6.624-1.016-1.047-1.751-3.4,1.343-2.967,4.134.572,5.047-.568,2.944-4.281-1.156-2.044-.022-3.865,1.78-4.851,1.5-.822,3.2-.763,3.984,1.345a3.637,3.637,0,0,0,2.644,2.2c2.054.556,2.934-1.055,3.744-2.414.487-.814-.246-1.308-1.075-1.464-1.475-.279-3.781.329-3.451-2.242.316-2.468,1.987-3.5,4.545-2.745a1.487,1.487,0,0,0,1.173-.385c3.394-3.17,4.534,1.768,6.99,1.918-.732,4.7,2.14,3.229,4.6,2.792,1.611-.285,4.46.716,4.069,1.422-1.686,3.047.7,5.6.324,8.354-.089.655-.261,1.351-.955,1.094-2.156-.8-3.453,1.51-5.454,1.346-1.045-.086-2.737-.343-2.587,1.477.112,1.366,1.552,1.056,2.538,1.147,4.671.432,7.055,5.373,11.676,5.944.244.03.4.743.6,1.135.65,1.254,1,3.263,3.022,2.256,2.092-1.04,1.25-2.915.262-4.179-3.2-4.095-.694-7.155,1.714-10.172.564-.706,2.384-.988,1.3-2.12-1.506-1.573.144-5.018-3.113-5.261-5.279-.4-7.259-4.148-9.376-8.617a10,10,0,0,1,5.6,2.27c2.384,1.642,4.784-.3,7.154.169-.846-3.181,2.816-3.21,3.751-5.3.892-2,2.613-2.655,4.434-.278,1.867,2.437,5.143,2.747,7.639,4.305a2.606,2.606,0,0,0,3.58-.821c.8-1.329-.661-1.735-1.339-2.377-1.039-.982-1.835-2.125-1.351-3.531.88-2.552-.158-3.548-2.575-3.887-1.095-.153-2.057-.856-1.505-2.162.543-1.284,1.614-.949,2.648-.524,1.733.714,4.76,1.079,5.147,1.587,1.677,2.2,6.994,1.261,5.51,6.224-.516,1.728,1.086,2.655,2.648,2.877,1.863.265,2.066-1.1,2.224-2.552.523-4.841-1.5-7.365-7.713-8.807-2.622-.609-3.907-1.869-3.887-4.51,13.376,0,26.753.061,40.128-.06,2.232-.02,2.747.5,2.735,2.736C199.226,21.787,199.271,40.217,199.271,58.646Zm-59.113-8.554c-.971,1.78.491,2.961,1.307,4.3,1.018,1.665,2.778,2.159,4.212,1.193,1.941-1.307-.3-2.037-.843-3.037-1.563-2.865,2.009-4.3,2.014-6.814a1.2,1.2,0,0,1,1.971-.928c2.2,2.03,3.773-.4,5.632-.6a1.932,1.932,0,0,0,1.8-2.166c-.068-1.2-.935-1.676-2.016-2.035-5.162-1.715-4.96-1.932-3.487-7.292.959-3.489-.843-6.991-1.936-10.343-.394-1.206-1.894-1.438-3-.473-1.137.992-.95,2.023.214,2.964.878.708,2.375,1.368,1.57,2.754-1.469,2.53-.724,5.208-.935,7.818-.365,4.507-2.294,6.463-6.451,6.418-.927-.01-1.811-.025-2.183,1.027a1.949,1.949,0,0,0,.743,2.354C140.447,46.479,140.622,48.136,140.158,50.092ZM109.19,45.981c.014-4.816-.6-6.242-4.947-11.685-.711-.889-1.088-2.353-2.6-1.88a2.536,2.536,0,0,0-1.2,1.682c-.332,1.379-.145,2.651,1.5,3.228,2.084.733,2.787,2.522,3.212,4.463.27,1.23-.859,1.99-1.407,1.346-2.585-3.041-4.037-1.646-5.842.841-.73,1.006-3.291.919-2.593,2.869.6,1.678,2.648.066,3.986.829.964.55,1.91-.416,2.817-.912,1.265-.692,2.553-.957,3.413.629.556,1.026.913,2.446,2.5,1.72C109.317,48.524,109.149,47.159,109.19,45.981Zm77.226-17.574c-.154,1.128.379,1.607,1.455,1.653,1.905.08,3.588-.7,3.22-2.678-.638-3.424-1.944-6.713-1.9-10.29.011-.8-.9-1.17-1.682-1.1-2.812.232-3,3.286-4.78,4.733-.842.684.409,3,1.8,3.532C186.75,25.1,188.738,25.631,186.416,28.407ZM114.948,79.124c1.973.187,3.33-.405,3.09-2.646-.157-1.464-.416-3.35-2.282-3.24-2.234.131-3.054,2.4-3.5,4.1C111.737,79.317,113.723,79.016,114.948,79.124ZM181.31,6.45c-.35-1.438-1.11-2.843-2.541-2.634a4.054,4.054,0,0,0-3.458,3.973c-.1,1.27.555,2.713,1.949,2.217C178.935,9.41,180.9,8.658,181.31,6.45ZM126.575,72.91c1.412-.126,3.861.186,3.594-1.957-.374-3.007-3.443-1-5.158-1.8-1.286-.6-2.472-.314-2.268,1.457C122.992,72.786,124.719,72.892,126.575,72.91Zm29.825,1.5c-.067-1.059-.112-2.08-1.353-1.928-2.649.324-4.073,2.1-4.688,4.528-.222.88.192,2.06,1.243,1.863C154.1,78.405,155.379,76.426,156.4,74.41Zm18.262-13.167c-1.491.35-4-.25-4.156,2.049-.134,1.952,2.128,1.511,3.522,1.575,1.879.087,4.048-.273,4.095-2.4C178.162,60.675,176.007,61.61,174.662,61.243Zm-27.379,16.12c-.25-.887-1.182-2.352-1.751-2a21.3,21.3,0,0,0-4.763,4.245c-.387.447.606,1.306,1.436,1.075C144.152,80.139,146.356,79.929,147.283,77.363Zm15.862-4.492c1.059-.079,2.13-.244,1.945-1.666a1.8,1.8,0,0,0-2.138-1.633,1.776,1.776,0,0,0-1.739,1.612C161.038,72.608,162.073,72.79,163.145,72.871Zm-15.828-3.782c-.121-1.463-1.191-1.472-2.233-1.467-.771,0-1.6.238-1.477,1.152a2.187,2.187,0,0,0,2.062,1.941C146.72,70.8,147.193,70.054,147.317,69.089Z"/><path class="cls-2" d="M156.467.683c-.02,2.641,1.265,3.9,3.887,4.51,6.218,1.442,8.236,3.966,7.713,8.807-.158,1.456-.361,2.817-2.224,2.552-1.562-.222-3.164-1.149-2.648-2.877,1.484-4.963-3.833-4.023-5.51-6.224-.387-.508-3.414-.873-5.147-1.587-1.034-.425-2.105-.76-2.648.524-.552,1.306.41,2.009,1.505,2.162,2.417.339,3.455,1.335,2.575,3.887-.484,1.406.312,2.549,1.351,3.531.678.642,2.143,1.048,1.339,2.377a2.606,2.606,0,0,1-3.58.821c-2.5-1.558-5.772-1.868-7.639-4.3-1.821-2.377-3.542-1.72-4.434.278-.935,2.094-4.6,2.123-3.751,5.3-2.37-.47-4.77,1.473-7.154-.169A10,10,0,0,0,124.5,18c2.117,4.469,4.1,8.221,9.376,8.617,3.257.243,1.607,3.688,3.113,5.261,1.084,1.132-.736,1.414-1.3,2.12-2.408,3.017-4.914,6.077-1.714,10.172.988,1.264,1.83,3.139-.262,4.179-2.026,1.007-2.372-1-3.022-2.256-.2-.392-.359-1.105-.6-1.135-4.621-.571-7.005-5.512-11.676-5.944-.986-.091-2.426.219-2.538-1.147-.15-1.82,1.542-1.563,2.587-1.477,2,.164,3.3-2.145,5.454-1.346.694.257.866-.439.955-1.094.377-2.755-2.01-5.307-.324-8.354.391-.706-2.458-1.707-4.069-1.422-2.465.437-5.337,1.911-4.6-2.792-2.456-.15-3.6-5.088-6.99-1.918a1.487,1.487,0,0,1-1.173.385c-2.558-.754-4.229.277-4.545,2.745-.33,2.571,1.976,1.963,3.451,2.242.829.156,1.562.65,1.075,1.464-.81,1.359-1.69,2.97-3.744,2.414a3.637,3.637,0,0,1-2.644-2.2c-.783-2.108-2.482-2.167-3.984-1.345-1.8.986-2.936,2.807-1.78,4.851,2.1,3.713,1.19,4.853-2.944,4.281-3.094-.428-2.359,1.92-1.343,2.967,2.632,2.711,1.674,4.642-.729,6.624a6.968,6.968,0,0,0-2.082,3.349c-.334,1.006-1.412,2.366-2.077,2.058-3.773-1.749-6.269,2.183-9.9,1.9-2.819-.22-3.286,3.383-3.73,5.759-.5,2.684-1.859,3.319-3.4,1.32-3.4-4.4-7.157-2.91-11.12-1.373a26.961,26.961,0,0,1-3.412.85l-.884-.008c.382-1.377-.714-4.349,1.422-3.795,3.635.941,6.143-2.119,9.424-1.591a1.633,1.633,0,0,0,1.93-.721,2.007,2.007,0,0,0-.81-2.342c-1.268-1.14-3.067-1.664-3.136-3.938-.075-2.477-1.793-3.371-4.168-3.7-7.224-.995-11.787-6.26-11.8-13.338,7.154-.084,8.215-1.279,7.129-8.029,1.409-1.639-.1-2.4-1.094-3.046-1.3-.837-2.2-.248-2.467,1.264-.3,0-.592,0-.887,0-1.656.182-1.8,1.374-1.785,2.673-.308,1.627-.665,3.218-2.678,3.565-5.361-4.538,3.708-6.512,1.888-10.489-.277-.605.258-1.437,1.067-1.719a1.875,1.875,0,0,1,2.061.4c2.539,2.723,3.925,1.321,5.8-1.059,3.832-4.859,4.664-4.715,8.612.06,2.692,3.255,10.022,3.788,13.394,1,.537-.444.818-1.262.349-1.447-2.186-.865-3.2-3.476-5.838-3.689-1.582-.127-3.757,1.86-4.669-.684-.76-2.118,1.386-3.345,2.464-4.862A8.968,8.968,0,0,0,70.859.683ZM120.515,15.81c3.069.447,3.656-2.044,3.641-4.2-.019-2.754-2.341-4.193-4.6-5.309a.942.942,0,0,0-1.175.99c.8,4.436-1.92,3.112-4.22,2.71a2.134,2.134,0,0,0-2.618,1.84c-.125,1.777,1.311,1.149,2.2.832,1.677-.594,2.5.312,3.164,1.593C117.644,15.672,118.9,15.908,120.515,15.81ZM82.282,40.763c1.924.226,3.235-.712,2.717-2.749-.73-2.871-2.565-4.966-5.778-5.158-1.357-.082-3.278.551-2.434,2.1C78.03,37.237,77.745,41.329,82.282,40.763Z"/><path class="cls-2" d="M.412.683H40.54c-.088,1.578.21,3.172-.732,4.671C38.78,6.991,35.625,7.93,36.769,10.1c1.264,2.395,3.986-.405,6.01.387a1.263,1.263,0,0,0,.435.006l0,0c.2,2.827-1.745,5.169-3.727,5.49-4.706.761-3.742,3.5-3.485,6.556a11.311,11.311,0,0,0,1.814,4.9,14.737,14.737,0,0,1,1.158,11.051c-.7,2.78-4.555.8-6.826,1.711a12.273,12.273,0,0,1-5.27.584,7.115,7.115,0,0,1-2.561-.5c-.944-.427-1.12-2.646-2.6-1.62-1.5,1.037-.028,2.389.356,3.566.273.833.811,1.635-.437,2.9-3.115-3.376-8.406-1.287-11.823-4.744-.721-.728-2.607-.613-2.634.39a13.546,13.546,0,0,0,1.161,6.491c.523.992,2.415-.4,3.323-1.3,1.6-1.591,3.179-1.729,4.515.044s2.073,3.874-.519,5.249c-1.346.714-1.673,1.324-1.088,2.741,1.641,3.98-.774,4.214-3.46,3.214C7.835,56,4.594,52.865,2.26,58.393c-.117.275-1.112.179-1.7.256Zm22.3,28.536c3.5-2.247.044-3.1-.894-4.459.361-1.972.64-3.931-1.042-6.01-1.258,1.787-.112,5.157-3.5,4.9-1.38-.106-3.623-1.8-3.78.787-.136,2.217-.179,5.259,3.074,6.1A27.523,27.523,0,0,0,20.029,31c1.428,1.314,2.273.88,2.674-.89C22.7,29.811,22.705,29.515,22.707,29.219Zm13.93.167c-.036-.928-.834-1.835-1.273-1.52-2.868,2.06-6.809,1.378-9.459,3.8a2.4,2.4,0,0,0-.339,2.521c.179.63.778,1.121,1.322.69,1.586-1.257,3.461-.378,5-.817C34.093,33.434,36.237,32.072,36.637,29.386Zm-9.05-7.236c-.7-1.258.13-3.595-1.927-3.945-1.479-.252-1.405,1.626-1.729,2.631-.555,1.718.781,2.362,2.088,2.737C27.013,23.859,27.781,23.521,27.587,22.15Zm2.68,4.639A4.4,4.4,0,0,0,30,26.134c-.025-.042-.342.006-.356.057a3.927,3.927,0,0,0-.071.69C29.8,26.851,30.033,26.821,30.267,26.789Z"/><path class="cls-1" d="M43.214,10.491a1.263,1.263,0,0,1-.435-.006c-2.024-.792-4.746,2.008-6.01-.387C35.625,7.93,38.78,6.991,39.808,5.354c.942-1.5.644-3.093.732-4.671H70.859a8.968,8.968,0,0,1-.728,1.582c-1.078,1.517-3.224,2.744-2.464,4.862.912,2.544,3.087.557,4.669.684,2.64.213,3.652,2.824,5.838,3.689.469.185.188,1-.349,1.447-3.372,2.792-10.7,2.259-13.394-1-3.948-4.775-4.78-4.919-8.612-.06-1.877,2.38-3.263,3.782-5.8,1.059a1.875,1.875,0,0,0-2.061-.4c-.809.282-1.344,1.114-1.067,1.719C48.709,18.25,39.64,20.224,45,24.762c-.262,1.617.806,2.57,1.782,3.569.009,7.078,4.572,12.343,11.8,13.338,2.375.327,4.093,1.221,4.168,3.7.069,2.274,1.868,2.8,3.136,3.938a2.007,2.007,0,0,1,.81,2.342,1.633,1.633,0,0,1-1.93.721c-3.281-.528-5.789,2.532-9.424,1.591-2.136-.554-1.04,2.418-1.422,3.795-1.96,1.144-3.953,2.05-6.241.894.334-4.063,2.44-7.149,5.4-9.752.977-.858,2.526-1.483,2.145-3.06-.346-1.439-1.865-1.8-3.142-2.163-1.584-.449-2.537.432-3.146,1.773-1.509,3.318-2.685,1.834-4.274-.075-2.89-3.472-7.884-.52-11.112-3.311-.022-.019-.743.514-.832.867-.709,2.808-2.306,2.657-4.311,1.394-1.339-.842-2.785-1.084-2.883.946-.081,1.674-2.092,4.677.682,4.907,4.743.393,5.821,2.671,5.416,6.69-2.755,2.586-6.149,1.793-9.409,1.838-1.481.02-3.279.223-3.561,1.983-.285,1.781,1.536,1.325,2.561,1.63s1.652,1.058,1.118,1.97c-1.6,2.732-2.568,5.985-6.5,6.675-3.643.639-4.659-1.664-5.733-4.2-.439-1.038-1.16-2.023-2.325-1.249-1.355.9.435,1.922.378,2.2-.813,3.865.448,6.024,4.449,6.711.474.082,1.239,2.3.9,2.7-2.776,3.248-2.234,7.346-3.275,11.447C9.917,81.9,8.313,76.621.566,76.486l0-17.837c.586-.077,1.581.019,1.7-.256C4.594,52.865,7.835,56,11.11,57.22c2.686,1,5.1.766,3.46-3.214-.585-1.417-.258-2.027,1.088-2.741,2.592-1.375,1.859-3.473.519-5.249s-2.911-1.635-4.515-.044c-.908.9-2.8,2.288-3.323,1.3a13.546,13.546,0,0,1-1.161-6.491c.027-1,1.913-1.118,2.634-.39,3.417,3.457,8.708,1.368,11.823,4.744,1.248-1.262.71-2.064.437-2.9-.384-1.177-1.856-2.529-.356-3.566,1.483-1.026,1.659,1.193,2.6,1.62a7.115,7.115,0,0,0,2.561.5,12.273,12.273,0,0,0,5.27-.584c2.271-.915,6.123,1.069,6.826-1.711a14.737,14.737,0,0,0-1.158-11.051A11.311,11.311,0,0,1,36,22.539c-.257-3.058-1.221-5.8,3.485-6.556,1.982-.321,3.928-2.663,3.727-5.49,2.717-.509,3.395-2.475,3.391-4.857a.868.868,0,0,0-1.221-.844C42.968,5.807,43.219,8,43.215,10.051,43.214,10.2,43.215,10.345,43.214,10.491Z"/><path class="cls-2" d="M31.622,56.864c.405-4.019-.673-6.3-5.416-6.69-2.774-.23-.763-3.233-.682-4.907.1-2.03,1.544-1.788,2.883-.946,2,1.263,3.6,1.414,4.311-1.394.089-.353.81-.886.832-.867,3.228,2.791,8.222-.161,11.112,3.311,1.589,1.909,2.765,3.393,4.274.075.609-1.341,1.562-2.222,3.146-1.773,1.277.362,2.8.724,3.142,2.163.381,1.577-1.168,2.2-2.145,3.06-2.963,2.6-5.069,5.689-5.4,9.752l-.894,1.781c-2.828.329-2.677,2.439-2.67,4.463-.706,1.156-1.036,3.013-2.968,2.336-1.814-.635-2.493-2.224-2.385-4.123,1.72-.569,5.051-1.865,3.712-2.872-2.122-1.6-4.423-4.966-8.173-3.369Zm14.116-2.249a6.914,6.914,0,0,0-4.921-2.994c-1.161-.209-2.552-.205-2.757,1.433a2.153,2.153,0,0,0,2.431,2.509A33.8,33.8,0,0,0,45.738,54.615Z"/><path class="cls-1" d="M122.961,108.9c-3.173-2.007-6.023.777-9.169,1.68-4.435,1.273-3.52-3.028-4.822-4.814-1.406-1.929.413-2.35,2.035-2.594,2.665-.4,3.818-4.564,7.581-2.7,3.348,1.662,5.621,4.794,9.251,6.082,1.157.41.5,1.787-.9,1.968C125.771,108.68,124.6,108.754,122.961,108.9Z"/><path class="cls-2" d="M151.109,138.912c-2.2.2-2.725,1.659-2.678,3.552l-3.551,0c-1.221-.711-1.506-3.253-3.76-1.937-1.119.653-2.956,1.679-2.942-.246.015-1.841-.717-5.047,2.787-5.419a6.942,6.942,0,0,1,2.127.468c.761,4.007,2.719,1.913,4.47.877,2.513.634,4.272-1.529,6.571-1.759,3.985-.4,4.82.463,4.119,4.453C155.871,139.375,153.488,137.183,151.109,138.912Z"/><path class="cls-2" d="M27.9,79.655c-1.164.1-1.785-.225-2.122-.973a1.845,1.845,0,0,1,.867-2.635c1.719-.8,2.1-1.335,1.414-3.571a5.612,5.612,0,0,1,3.21-6.445c2.446-1.005,3.192,1,4.25,3.092,1.178,2.327,1.375,2.979-.818,4.99A55.325,55.325,0,0,1,27.9,79.655Z"/><path class="cls-2" d="M.593,112.16l0-3.586c5.767-.566,11.13-2.814,16.743-4.033,2-.435,4.429-.714,4.764,1.542.4,2.686-2.3,2.218-4.165,2.558C12.131,109.7,6.369,110.971.593,112.16Z"/><path class="cls-2" d="M113.255,178.2c-.243,1.271-1.425,2-2.25,1.523-3.075-1.787-6.92-1.739-9.67-4.158-.62-.545-1.666-1.153-1.233-2.124.23-.516,1.184-.815,1.869-1,1.962-.534,10.192,3.157,11.055,4.9A4.551,4.551,0,0,1,113.255,178.2Z"/><path class="cls-1" d="M151.109,138.912c2.379-1.729,4.762.463,7.143-.009-.008,1.622.014,3.244-.033,4.865-.051,1.757-.671,3.474-2.554,3.567a3.6,3.6,0,0,1-3.533-2.809C151.632,142.7,151.437,140.787,151.109,138.912Z"/><path class="cls-1" d="M34.3,56.864c3.75-1.6,6.051,1.773,8.173,3.369,1.339,1.007-1.992,2.3-3.712,2.872C35.258,62.464,34.842,59.618,34.3,56.864Z"/><path class="cls-2" d="M150.935,184.577a1.907,1.907,0,0,1-1.393,2.153c-1.321.432-1.781-.545-2.159-1.591-.348-.962-.539-2.3-1.254-2.751-2.037-1.3-1.807-2.41-.089-3.557,1.969-1.314,3.057.156,3.788,1.619A21.7,21.7,0,0,1,150.935,184.577Z"/><path class="cls-2" d="M70.126,104.174c-1.432-.244-3.227.426-3.383-1.485-.139-1.693,1.364-2.013,2.761-2.1a2.146,2.146,0,0,1,.873-.01c1.791.733,5.179-2.42,5.308,1.147C75.778,104.291,71.935,103.361,70.126,104.174Z"/><path class="cls-2" d="M72.03,106.981c1.418,4.316-1.393,6.443-3.612,8.771a.994.994,0,0,1-1.77-.3c-.41-1.262-.58-2.712.408-3.769C68.519,110.114,70.168,108.721,72.03,106.981Z"/><path class="cls-1" d="M58.144,84.162c1.668,3.085,1.019,6.274.982,9.4a1.137,1.137,0,0,1-1.455,1.214c-.9-.2-.907-1.014-1.047-1.741C56.018,89.869,58.528,87.321,58.144,84.162Z"/><path class="cls-2" d="M44.83,132.113c-.182,1.7-1.266,2.233-2.728,2.282-1.324.044-2.41-.361-2.322-1.9.091-1.587.9-2.954,2.6-2.962C43.842,129.525,44.56,130.768,44.83,132.113Z"/><path class="cls-2" d="M95.819,86.276c1.155.981.838,2.335.911,3.591-1.794,1.389-3.547,1.208-4.176-.96C91.744,86.115,94.073,86.366,95.819,86.276Z"/><path class="cls-2" d="M80.669,81.834a3.983,3.983,0,0,1,3.554,1.414c.519.655.746,1.4.06,1.944a6.062,6.062,0,0,1-2.634,1.439c-.824.117-.935-.953-.958-1.694-.032-1.034-.016-2.07-.02-3.106Z"/><path class="cls-2" d="M46.7,142.481c-.088,1.23-.509,2.33-1.953,2.38s-1.5-1.123-1.47-2.158c.038-1.2.261-2.485,1.809-2.453C46.34,140.276,46.617,141.366,46.7,142.481Z"/><path class="cls-2" d="M60.158,62.214c-.356-1.03-1.359-2.121-.126-3.107a3.484,3.484,0,0,1,3.318-.273c1.485.492.676,1.588.379,2.493A6.463,6.463,0,0,1,60.158,62.214Z"/><path class="cls-2" d="M105.983,96.03c1.266.287,2.964-.264,2.773,1.61-.141,1.381-1.573,1.111-2.55,1.088-1.146-.028-2.717.005-2.587-1.638C103.737,95.584,105.338,96.493,105.983,96.03Z"/><path class="cls-2" d="M29.4,150.954c-.3,1.037-.7,2.071-2,1.973a2.411,2.411,0,0,1-2.4-2.215c-.047-1.15,1.192-1.1,2.055-1.074C28.028,149.664,29.245,149.389,29.4,150.954Z"/><path class="cls-2" d="M191.918,122.871c-.159,1.664-1.189,1.727-2.228,1.7-.922-.029-1.772-.311-1.744-1.439a1.808,1.808,0,0,1,1.962-1.858A2.005,2.005,0,0,1,191.918,122.871Z"/><path class="cls-2" d="M166.8,81.028a1.725,1.725,0,0,1-1.889,1.51c-1.142-.06-2.028-.672-1.749-1.945a1.667,1.667,0,0,1,2.028-1.235A1.647,1.647,0,0,1,166.8,81.028Z"/><path class="cls-2" d="M146.443,156.269c-.215,1.108-1.016,1.346-1.953,1.233-.9-.108-1.843-.45-1.768-1.518.089-1.262,1.193-1.574,2.233-1.526S146.385,155.3,146.443,156.269Z"/><path class="cls-1" d="M147.562,136.209c-1.751,1.036-3.709,3.13-4.47-.877C144.749,134.775,146.59,133.276,147.562,136.209Z"/><path class="cls-1" d="M44.112,64.892c-.007-2.024-.158-4.134,2.67-4.463C46.466,62.26,45.854,63.914,44.112,64.892Z"/><path class="cls-1" d="M144.88,142.466l3.551,0C147.248,144.028,146.066,145.6,144.88,142.466Z"/><path class="cls-2" d="M140.158,50.092c.464-1.956.289-3.613-1.394-4.861a1.949,1.949,0,0,1-.743-2.354c.372-1.052,1.256-1.037,2.183-1.027,4.157.045,6.086-1.911,6.451-6.418.211-2.61-.534-5.288.935-7.818.805-1.386-.692-2.046-1.57-2.754-1.164-.941-1.351-1.972-.214-2.964,1.107-.965,2.607-.733,3,.473,1.093,3.352,2.9,6.854,1.936,10.343-1.473,5.36-1.675,5.577,3.487,7.292,1.081.359,1.948.838,2.016,2.035a1.932,1.932,0,0,1-1.8,2.166c-1.859.194-3.429,2.627-5.632.6a1.2,1.2,0,0,0-1.971.928c-.005,2.517-3.577,3.949-2.014,6.814.546,1,2.784,1.73.843,3.037-1.434.966-3.194.472-4.212-1.193C140.649,53.053,139.187,51.872,140.158,50.092Z"/><path class="cls-2" d="M109.192,45.982c-.043,1.177.125,2.542-1.163,3.129-1.592.726-1.949-.694-2.5-1.72-.86-1.586-2.148-1.321-3.413-.629-.907.5-1.853,1.462-2.817.912-1.338-.763-3.386.849-3.986-.829-.7-1.95,1.863-1.863,2.593-2.869,1.805-2.487,3.257-3.882,5.842-.841.548.644,1.677-.116,1.407-1.346-.425-1.941-1.128-3.73-3.212-4.463-1.64-.577-1.827-1.849-1.5-3.228a2.536,2.536,0,0,1,1.2-1.682c1.51-.473,1.887.991,2.6,1.88C108.59,39.739,109.2,41.165,109.192,45.982Z"/><path class="cls-2" d="M186.416,28.407c2.322-2.776.334-3.312-1.877-4.155-1.4-.532-2.647-2.848-1.8-3.532,1.779-1.447,1.968-4.5,4.78-4.733.778-.065,1.693.306,1.682,1.1-.049,3.577,1.257,6.866,1.9,10.29.368,1.974-1.315,2.758-3.22,2.678C186.8,30.014,186.262,29.535,186.416,28.407Z"/><path class="cls-2" d="M114.948,79.124c-1.225-.108-3.211.193-2.693-1.783.447-1.7,1.267-3.972,3.5-4.1,1.866-.11,2.125,1.776,2.282,3.24C118.278,78.719,116.921,79.311,114.948,79.124Z"/><path class="cls-2" d="M181.31,6.45c-.413,2.208-2.375,2.96-4.05,3.556-1.394.5-2.047-.947-1.949-2.217a4.054,4.054,0,0,1,3.458-3.973C180.2,3.607,180.96,5.012,181.31,6.45Z"/><path class="cls-2" d="M126.575,72.91c-1.856-.018-3.583-.124-3.832-2.3-.2-1.771.982-2.057,2.268-1.457,1.715.8,4.784-1.209,5.158,1.8C130.436,73.1,127.987,72.784,126.575,72.91Z"/><path class="cls-3" d="M156.4,74.41c-1.021,2.016-2.3,4-4.8,4.463-1.051.2-1.465-.983-1.243-1.863.615-2.431,2.039-4.2,4.688-4.528C156.288,72.33,156.333,73.351,156.4,74.41Z"/><path class="cls-2" d="M174.662,61.243c1.345.367,3.5-.568,3.461,1.224-.047,2.127-2.216,2.487-4.095,2.4-1.394-.064-3.656.377-3.522-1.575C170.663,60.993,173.171,61.593,174.662,61.243Z"/><path class="cls-3" d="M147.283,77.363c-.927,2.566-3.131,2.776-5.078,3.319-.83.231-1.823-.628-1.436-1.075a21.3,21.3,0,0,1,4.763-4.245C146.1,75.011,147.033,76.476,147.283,77.363Z"/><path class="cls-3" d="M163.142,72.871c-1.069-.081-2.1-.263-1.929-1.687a1.776,1.776,0,0,1,1.739-1.612,1.8,1.8,0,0,1,2.138,1.633C165.275,72.627,164.2,72.792,163.142,72.871Z"/><path class="cls-2" d="M147.317,69.089c-.124.965-.6,1.714-1.648,1.626a2.187,2.187,0,0,1-2.062-1.941c-.12-.914.706-1.148,1.477-1.152C146.126,67.617,147.2,67.626,147.317,69.089Z"/><path class="cls-1" d="M120.515,15.81c-1.617.1-2.871-.138-3.6-1.548-.664-1.281-1.487-2.187-3.164-1.593-.894.317-2.33.945-2.2-.832A2.134,2.134,0,0,1,114.162,10c2.3.4,5.025,1.726,4.22-2.71a.942.942,0,0,1,1.175-.99c2.258,1.116,4.58,2.555,4.6,5.309C124.171,13.766,123.584,16.257,120.515,15.81Z"/><path class="cls-3" d="M46.783,28.331c-.976-1-2.044-1.952-1.782-3.569,2.013-.347,2.37-1.938,2.678-3.565a2.92,2.92,0,0,0,1.785-2.673c.3,0,.591,0,.887,0,1.494-.02,2.362,1.212,3.561,1.782C55,27.052,53.937,28.247,46.783,28.331Z"/><path class="cls-1" d="M82.282,40.763c-4.537.566-4.252-3.526-5.495-5.807-.844-1.549,1.077-2.182,2.434-2.1,3.213.192,5.048,2.287,5.778,5.158C85.517,40.051,84.206,40.989,82.282,40.763Z"/><path class="cls-1" d="M53.912,20.3c-1.2-.57-2.067-1.8-3.561-1.782.267-1.512,1.17-2.1,2.467-1.264C53.816,17.9,55.321,18.663,53.912,20.3Z"/><path class="cls-1" d="M49.464,18.524A2.92,2.92,0,0,1,47.679,21.2C47.663,19.9,47.808,18.706,49.464,18.524Z"/><path class="cls-3" d="M20.029,31a27.523,27.523,0,0,1-3.459-.461c-3.253-.844-3.21-3.886-3.074-6.1.157-2.583,2.4-.893,3.78-.787,3.383.26,2.237-3.11,3.5-4.9,1.682,2.079,1.4,4.038,1.042,6.01-1.674,1.882,1.335,2.825.894,4.459,0,.3,0,.592,0,.889C21.715,30.114,20.72,30.1,20.029,31Z"/><path class="cls-1" d="M36.637,29.386c-.4,2.686-2.544,4.048-4.746,4.674-1.542.439-3.417-.44-5,.817-.544.431-1.143-.06-1.322-.69a2.4,2.4,0,0,1,.339-2.521c2.65-2.422,6.591-1.74,9.459-3.8C35.8,27.551,36.6,28.458,36.637,29.386Z"/><path class="cls-1" d="M27.587,22.15c.194,1.371-.574,1.709-1.568,1.423-1.307-.375-2.643-1.019-2.088-2.737.324-1,.25-2.883,1.729-2.631C27.717,18.555,26.887,20.892,27.587,22.15Z"/><path class="cls-1" d="M22.707,29.219c.441-1.634-2.568-2.577-.894-4.459C22.751,26.118,26.207,26.972,22.707,29.219Z"/><path class="cls-1" d="M20.029,31c.691-.9,1.686-.884,2.674-.89C22.3,31.878,21.457,32.312,20.029,31Z"/><path class="cls-1" d="M30.266,26.79l-.7.091a3.927,3.927,0,0,1,.071-.69c.014-.051.331-.1.356-.057A4.265,4.265,0,0,1,30.266,26.79Z"/><path class="cls-2" d="M43.214,10.491c0-.146,0-.293,0-.44,0-2.054-.247-4.244,2.171-5.259a.868.868,0,0,1,1.221.844c0,2.382-.674,4.348-3.391,4.857Z"/><path class="cls-1" d="M45.738,54.615a33.8,33.8,0,0,1-5.247.948,2.153,2.153,0,0,1-2.431-2.509c.2-1.638,1.6-1.642,2.757-1.433A6.914,6.914,0,0,1,45.738,54.615Z"/><circle id="Elipse_166" data-name="Elipse 166" class="cls-4" cx="100.448" cy="99.664" r="15.811"/><circle id="Elipse_164" data-name="Elipse 164" class="cls-5" cx="98.88" cy="98.561" r="15.811"/><circle id="Elipse_165" data-name="Elipse 165" class="cls-6" cx="98.88" cy="98.561" r="15.811"/></g></svg>