<svg xmlns="http://www.w3.org/2000/svg" xmlns:xlink="http://www.w3.org/1999/xlink" viewBox="0 0 200 200"><defs><style>.cls-1,.cls-2{fill:none;stroke-miterlimit:10;}.cls-1{stroke:#fbe90d;stroke-width:0.5px;}.cls-2{stroke:#e51b72;stroke-width:0.2px;}.cls-3{fill:#ffe082;}.cls-4{fill:#ffcf3d;}.cls-5{fill:url(#Degradado_sin_nombre_32);}.cls-6{fill:#9c9c9b;}.cls-7{fill:#c70613;}.cls-8{fill:#9a0613;}</style><linearGradient id="Degradado_sin_nombre_32" x1="50.349" y1="139.97" x2="146.491" y2="139.97" gradientUnits="userSpaceOnUse"><stop offset="0.166" stop-color="#ffc234"/><stop offset="0.379" stop-color="#ffc440" stop-opacity="0.694"/><stop offset="0.602" stop-color="#ffc74c" stop-opacity="0.399"/><stop offset="0.788" stop-color="#ffc955" stop-opacity="0.184"/><stop offset="0.925" stop-color="#ffca5a" stop-opacity="0.05"/><stop offset="1" stop-color="#ffca5c" stop-opacity="0"/></linearGradient></defs><title>post-it-pin-icon</title><g id="guide"><rect class="cls-1" width="8.333" height="8.333"/><rect class="cls-1" x="8.333" width="8.333" height="8.333"/><rect class="cls-1" x="16.667" width="8.333" height="8.333"/><rect class="cls-1" x="25" width="8.333" height="8.333"/><rect class="cls-1" x="33.333" width="8.333" height="8.333"/><rect class="cls-1" x="41.667" width="8.333" height="8.333"/><rect class="cls-1" x="50" width="8.333" height="8.333"/><rect class="cls-1" x="58.333" width="8.333" height="8.333"/><rect class="cls-1" x="66.667" width="8.333" height="8.333"/><rect class="cls-1" x="75" width="8.333" height="8.333"/><rect class="cls-1" x="83.333" width="8.333" height="8.333"/><rect class="cls-1" x="91.667" width="8.333" height="8.333"/><rect class="cls-1" x="100" width="8.333" height="8.333"/><rect class="cls-1" x="108.333" width="8.333" height="8.333"/><rect class="cls-1" x="116.667" width="8.333" height="8.333"/><rect class="cls-1" x="125" width="8.333" height="8.333"/><rect class="cls-1" x="133.333" width="8.333" height="8.333"/><rect class="cls-1" x="141.667" width="8.333" height="8.333"/><rect class="cls-1" x="150" width="8.333" height="8.333"/><rect class="cls-1" x="158.333" width="8.333" height="8.333"/><rect class="cls-1" x="166.667" width="8.333" height="8.333"/><rect class="cls-1" x="175" width="8.333" height="8.333"/><rect class="cls-1" x="183.333" width="8.333" height="8.333"/><rect class="cls-1" x="191.667" width="8.333" height="8.333"/><rect class="cls-1" y="8.333" width="8.333" height="8.333"/><rect class="cls-1" x="8.333" y="8.333" width="8.333" height="8.333"/><rect class="cls-1" x="16.667" y="8.333" width="8.333" height="8.333"/><rect class="cls-1" x="25" y="8.333" width="8.333" height="8.333"/><rect class="cls-1" x="33.333" y="8.333" width="8.333" height="8.333"/><rect class="cls-1" x="41.667" y="8.333" width="8.333" height="8.333"/><rect class="cls-1" x="50" y="8.333" width="8.333" height="8.333"/><rect class="cls-1" x="58.333" y="8.333" width="8.333" height="8.333"/><rect class="cls-1" x="66.667" y="8.333" width="8.333" height="8.333"/><rect class="cls-1" x="75" y="8.333" width="8.333" height="8.333"/><rect class="cls-1" x="83.333" y="8.333" width="8.333" height="8.333"/><rect class="cls-1" x="91.667" y="8.333" width="8.333" height="8.333"/><rect class="cls-1" x="100" y="8.333" width="8.333" height="8.333"/><rect class="cls-1" x="108.333" y="8.333" width="8.333" height="8.333"/><rect class="cls-1" x="116.667" y="8.333" width="8.333" height="8.333"/><rect class="cls-1" x="125" y="8.333" width="8.333" height="8.333"/><rect class="cls-1" x="133.333" y="8.333" width="8.333" height="8.333"/><rect class="cls-1" x="141.667" y="8.333" width="8.333" height="8.333"/><rect class="cls-1" x="150" y="8.333" width="8.333" height="8.333"/><rect class="cls-1" x="158.333" y="8.333" width="8.333" height="8.333"/><rect class="cls-1" x="166.667" y="8.333" width="8.333" height="8.333"/><rect class="cls-1" x="175" y="8.333" width="8.333" height="8.333"/><rect class="cls-1" x="183.333" y="8.333" width="8.333" height="8.333"/><rect class="cls-1" x="191.667" y="8.333" width="8.333" height="8.333"/><rect class="cls-1" y="16.667" width="8.333" height="8.333"/><rect class="cls-1" x="8.333" y="16.667" width="8.333" height="8.333"/><rect class="cls-1" x="16.667" y="16.667" width="8.333" height="8.333"/><rect class="cls-1" x="25" y="16.667" width="8.333" height="8.333"/><rect class="cls-1" x="33.333" y="16.667" width="8.333" height="8.333"/><rect class="cls-1" x="41.667" y="16.667" width="8.333" height="8.333"/><rect class="cls-1" x="50" y="16.667" width="8.333" height="8.333"/><rect class="cls-1" x="58.333" y="16.667" width="8.333" height="8.333"/><rect class="cls-1" x="66.667" y="16.667" width="8.333" height="8.333"/><rect class="cls-1" x="75" y="16.667" width="8.333" height="8.333"/><rect class="cls-1" x="83.333" y="16.667" width="8.333" height="8.333"/><rect class="cls-1" x="91.667" y="16.667" width="8.333" height="8.333"/><rect class="cls-1" x="100" y="16.667" width="8.333" height="8.333"/><rect class="cls-1" x="108.333" y="16.667" width="8.333" height="8.333"/><rect class="cls-1" x="116.667" y="16.667" width="8.333" height="8.333"/><rect class="cls-1" x="125" y="16.667" width="8.333" height="8.333"/><rect class="cls-1" x="133.333" y="16.667" width="8.333" height="8.333"/><rect class="cls-1" x="141.667" y="16.667" width="8.333" height="8.333"/><rect class="cls-1" x="150" y="16.667" width="8.333" height="8.333"/><rect class="cls-1" x="158.333" y="16.667" width="8.333" height="8.333"/><rect class="cls-1" x="166.667" y="16.667" width="8.333" height="8.333"/><rect class="cls-1" x="175" y="16.667" width="8.333" height="8.333"/><rect class="cls-1" x="183.333" y="16.667" width="8.333" height="8.333"/><rect class="cls-1" x="191.667" y="16.667" width="8.333" height="8.333"/><rect class="cls-1" y="25" width="8.333" height="8.333"/><rect class="cls-1" x="8.333" y="25" width="8.333" height="8.333"/><rect class="cls-1" x="16.667" y="25" width="8.333" height="8.333"/><rect class="cls-1" x="25" y="25" width="8.333" height="8.333"/><rect class="cls-1" x="33.333" y="25" width="8.333" height="8.333"/><rect class="cls-1" x="41.667" y="25" width="8.333" height="8.333"/><rect class="cls-1" x="50" y="25" width="8.333" height="8.333"/><rect class="cls-1" x="58.333" y="25" width="8.333" height="8.333"/><rect class="cls-1" x="66.667" y="25" width="8.333" height="8.333"/><rect class="cls-1" x="75" y="25" width="8.333" height="8.333"/><rect class="cls-1" x="83.333" y="25" width="8.333" height="8.333"/><rect class="cls-1" x="91.667" y="25" width="8.333" height="8.333"/><rect class="cls-1" x="100" y="25" width="8.333" height="8.333"/><rect class="cls-1" x="108.333" y="25" width="8.333" height="8.333"/><rect class="cls-1" x="116.667" y="25" width="8.333" height="8.333"/><rect class="cls-1" x="125" y="25" width="8.333" height="8.333"/><rect class="cls-1" x="133.333" y="25" width="8.333" height="8.333"/><rect class="cls-1" x="141.667" y="25" width="8.333" height="8.333"/><rect class="cls-1" x="150" y="25" width="8.333" height="8.333"/><rect class="cls-1" x="158.333" y="25" width="8.333" height="8.333"/><rect class="cls-1" x="166.667" y="25" width="8.333" height="8.333"/><rect class="cls-1" x="175" y="25" width="8.333" height="8.333"/><rect class="cls-1" x="183.333" y="25" width="8.333" height="8.333"/><rect class="cls-1" x="191.667" y="25" width="8.333" height="8.333"/><rect class="cls-1" y="33.333" width="8.333" height="8.333"/><rect class="cls-1" x="8.333" y="33.333" width="8.333" height="8.333"/><rect class="cls-1" x="16.667" y="33.333" width="8.333" height="8.333"/><rect class="cls-1" x="25" y="33.333" width="8.333" height="8.333"/><rect class="cls-1" x="33.333" y="33.333" width="8.333" height="8.333"/><rect class="cls-1" x="41.667" y="33.333" width="8.333" height="8.333"/><rect class="cls-1" x="50" y="33.333" width="8.333" height="8.333"/><rect class="cls-1" x="58.333" y="33.333" width="8.333" height="8.333"/><rect class="cls-1" x="66.667" y="33.333" width="8.333" height="8.333"/><rect class="cls-1" x="75" y="33.333" width="8.333" height="8.333"/><rect class="cls-1" x="83.333" y="33.333" width="8.333" height="8.333"/><rect class="cls-1" x="91.667" y="33.333" width="8.333" height="8.333"/><rect class="cls-1" x="100" y="33.333" width="8.333" height="8.333"/><rect class="cls-1" x="108.333" y="33.333" width="8.333" height="8.333"/><rect class="cls-1" x="116.667" y="33.333" width="8.333" height="8.333"/><rect class="cls-1" x="125" y="33.333" width="8.333" height="8.333"/><rect class="cls-1" x="133.333" y="33.333" width="8.333" height="8.333"/><rect class="cls-1" x="141.667" y="33.333" width="8.333" height="8.333"/><rect class="cls-1" x="150" y="33.333" width="8.333" height="8.333"/><rect class="cls-1" x="158.333" y="33.333" width="8.333" height="8.333"/><rect class="cls-1" x="166.667" y="33.333" width="8.333" height="8.333"/><rect class="cls-1" x="175" y="33.333" width="8.333" height="8.333"/><rect class="cls-1" x="183.333" y="33.333" width="8.333" height="8.333"/><rect class="cls-1" x="191.667" y="33.333" width="8.333" height="8.333"/><rect class="cls-1" y="41.667" width="8.333" height="8.333"/><rect class="cls-1" x="8.333" y="41.667" width="8.333" height="8.333"/><rect class="cls-1" x="16.667" y="41.667" width="8.333" height="8.333"/><rect class="cls-1" x="25" y="41.667" width="8.333" height="8.333"/><rect class="cls-1" x="33.333" y="41.667" width="8.333" height="8.333"/><rect class="cls-1" x="41.667" y="41.667" width="8.333" height="8.333"/><rect class="cls-1" x="50" y="41.667" width="8.333" height="8.333"/><rect class="cls-1" x="58.333" y="41.667" width="8.333" height="8.333"/><rect class="cls-1" x="66.667" y="41.667" width="8.333" height="8.333"/><rect class="cls-1" x="75" y="41.667" width="8.333" height="8.333"/><rect class="cls-1" x="83.333" y="41.667" width="8.333" height="8.333"/><rect class="cls-1" x="91.667" y="41.667" width="8.333" height="8.333"/><rect class="cls-1" x="100" y="41.667" width="8.333" height="8.333"/><rect class="cls-1" x="108.333" y="41.667" width="8.333" height="8.333"/><rect class="cls-1" x="116.667" y="41.667" width="8.333" height="8.333"/><rect class="cls-1" x="125" y="41.667" width="8.333" height="8.333"/><rect class="cls-1" x="133.333" y="41.667" width="8.333" height="8.333"/><rect class="cls-1" x="141.667" y="41.667" width="8.333" height="8.333"/><rect class="cls-1" x="150" y="41.667" width="8.333" height="8.333"/><rect class="cls-1" x="158.333" y="41.667" width="8.333" height="8.333"/><rect class="cls-1" x="166.667" y="41.667" width="8.333" height="8.333"/><rect class="cls-1" x="175" y="41.667" width="8.333" height="8.333"/><rect class="cls-1" x="183.333" y="41.667" width="8.333" height="8.333"/><rect class="cls-1" x="191.667" y="41.667" width="8.333" height="8.333"/><rect class="cls-1" y="50" width="8.333" height="8.333"/><rect class="cls-1" x="8.333" y="50" width="8.333" height="8.333"/><rect class="cls-1" x="16.667" y="50" width="8.333" height="8.333"/><rect class="cls-1" x="25" y="50" width="8.333" height="8.333"/><rect class="cls-1" x="33.333" y="50" width="8.333" height="8.333"/><rect class="cls-1" x="41.667" y="50" width="8.333" height="8.333"/><rect class="cls-1" x="50" y="50" width="8.333" height="8.333"/><rect class="cls-1" x="58.333" y="50" width="8.333" height="8.333"/><rect class="cls-1" x="66.667" y="50" width="8.333" height="8.333"/><rect class="cls-1" x="75" y="50" width="8.333" height="8.333"/><rect class="cls-1" x="83.333" y="50" width="8.333" height="8.333"/><rect class="cls-1" x="91.667" y="50" width="8.333" height="8.333"/><rect class="cls-1" x="100" y="50" width="8.333" height="8.333"/><rect class="cls-1" x="108.333" y="50" width="8.333" height="8.333"/><rect class="cls-1" x="116.667" y="50" width="8.333" height="8.333"/><rect class="cls-1" x="125" y="50" width="8.333" height="8.333"/><rect class="cls-1" x="133.333" y="50" width="8.333" height="8.333"/><rect class="cls-1" x="141.667" y="50" width="8.333" height="8.333"/><rect class="cls-1" x="150" y="50" width="8.333" height="8.333"/><rect class="cls-1" x="158.333" y="50" width="8.333" height="8.333"/><rect class="cls-1" x="166.667" y="50" width="8.333" height="8.333"/><rect class="cls-1" x="175" y="50" width="8.333" height="8.333"/><rect class="cls-1" x="183.333" y="50" width="8.333" height="8.333"/><rect class="cls-1" x="191.667" y="50" width="8.333" height="8.333"/><rect class="cls-1" y="58.333" width="8.333" height="8.333"/><rect class="cls-1" x="8.333" y="58.333" width="8.333" height="8.333"/><rect class="cls-1" x="16.667" y="58.333" width="8.333" height="8.333"/><rect class="cls-1" x="25" y="58.333" width="8.333" height="8.333"/><rect class="cls-1" x="33.333" y="58.333" width="8.333" height="8.333"/><rect class="cls-1" x="41.667" y="58.333" width="8.333" height="8.333"/><rect class="cls-1" x="50" y="58.333" width="8.333" height="8.333"/><rect class="cls-1" x="58.333" y="58.333" width="8.333" height="8.333"/><rect class="cls-1" x="66.667" y="58.333" width="8.333" height="8.333"/><rect class="cls-1" x="75" y="58.333" width="8.333" height="8.333"/><rect class="cls-1" x="83.333" y="58.333" width="8.333" height="8.333"/><rect class="cls-1" x="91.667" y="58.333" width="8.333" height="8.333"/><rect class="cls-1" x="100" y="58.333" width="8.333" height="8.333"/><rect class="cls-1" x="108.333" y="58.333" width="8.333" height="8.333"/><rect class="cls-1" x="116.667" y="58.333" width="8.333" height="8.333"/><rect class="cls-1" x="125" y="58.333" width="8.333" height="8.333"/><rect class="cls-1" x="133.333" y="58.333" width="8.333" height="8.333"/><rect class="cls-1" x="141.667" y="58.333" width="8.333" height="8.333"/><rect class="cls-1" x="150" y="58.333" width="8.333" height="8.333"/><rect class="cls-1" x="158.333" y="58.333" width="8.333" height="8.333"/><rect class="cls-1" x="166.667" y="58.333" width="8.333" height="8.333"/><rect class="cls-1" x="175" y="58.333" width="8.333" height="8.333"/><rect class="cls-1" x="183.333" y="58.333" width="8.333" height="8.333"/><rect class="cls-1" x="191.667" y="58.333" width="8.333" height="8.333"/><rect class="cls-1" y="66.667" width="8.333" height="8.333"/><rect class="cls-1" x="8.333" y="66.667" width="8.333" height="8.333"/><rect class="cls-1" x="16.667" y="66.667" width="8.333" height="8.333"/><rect class="cls-1" x="25" y="66.667" width="8.333" height="8.333"/><rect class="cls-1" x="33.333" y="66.667" width="8.333" height="8.333"/><rect class="cls-1" x="41.667" y="66.667" width="8.333" height="8.333"/><rect class="cls-1" x="50" y="66.667" width="8.333" height="8.333"/><rect class="cls-1" x="58.333" y="66.667" width="8.333" height="8.333"/><rect class="cls-1" x="66.667" y="66.667" width="8.333" height="8.333"/><rect class="cls-1" x="75" y="66.667" width="8.333" height="8.333"/><rect class="cls-1" x="83.333" y="66.667" width="8.333" height="8.333"/><rect class="cls-1" x="91.667" y="66.667" width="8.333" height="8.333"/><rect class="cls-1" x="100" y="66.667" width="8.333" height="8.333"/><rect class="cls-1" x="108.333" y="66.667" width="8.333" height="8.333"/><rect class="cls-1" x="116.667" y="66.667" width="8.333" height="8.333"/><rect class="cls-1" x="125" y="66.667" width="8.333" height="8.333"/><rect class="cls-1" x="133.333" y="66.667" width="8.333" height="8.333"/><rect class="cls-1" x="141.667" y="66.667" width="8.333" height="8.333"/><rect class="cls-1" x="150" y="66.667" width="8.333" height="8.333"/><rect class="cls-1" x="158.333" y="66.667" width="8.333" height="8.333"/><rect class="cls-1" x="166.667" y="66.667" width="8.333" height="8.333"/><rect class="cls-1" x="175" y="66.667" width="8.333" height="8.333"/><rect class="cls-1" x="183.333" y="66.667" width="8.333" height="8.333"/><rect class="cls-1" x="191.667" y="66.667" width="8.333" height="8.333"/><rect class="cls-1" y="75" width="8.333" height="8.333"/><rect class="cls-1" x="8.333" y="75" width="8.333" height="8.333"/><rect class="cls-1" x="16.667" y="75" width="8.333" height="8.333"/><rect class="cls-1" x="25" y="75" width="8.333" height="8.333"/><rect class="cls-1" x="33.333" y="75" width="8.333" height="8.333"/><rect class="cls-1" x="41.667" y="75" width="8.333" height="8.333"/><rect class="cls-1" x="50" y="75" width="8.333" height="8.333"/><rect class="cls-1" x="58.333" y="75" width="8.333" height="8.333"/><rect class="cls-1" x="66.667" y="75" width="8.333" height="8.333"/><rect class="cls-1" x="75" y="75" width="8.333" height="8.333"/><rect class="cls-1" x="83.333" y="75" width="8.333" height="8.333"/><rect class="cls-1" x="91.667" y="75" width="8.333" height="8.333"/><rect class="cls-1" x="100" y="75" width="8.333" height="8.333"/><rect class="cls-1" x="108.333" y="75" width="8.333" height="8.333"/><rect class="cls-1" x="116.667" y="75" width="8.333" height="8.333"/><rect class="cls-1" x="125" y="75" width="8.333" height="8.333"/><rect class="cls-1" x="133.333" y="75" width="8.333" height="8.333"/><rect class="cls-1" x="141.667" y="75" width="8.333" height="8.333"/><rect class="cls-1" x="150" y="75" width="8.333" height="8.333"/><rect class="cls-1" x="158.333" y="75" width="8.333" height="8.333"/><rect class="cls-1" x="166.667" y="75" width="8.333" height="8.333"/><rect class="cls-1" x="175" y="75" width="8.333" height="8.333"/><rect class="cls-1" x="183.333" y="75" width="8.333" height="8.333"/><rect class="cls-1" x="191.667" y="75" width="8.333" height="8.333"/><rect class="cls-1" y="83.333" width="8.333" height="8.333"/><rect class="cls-1" x="8.333" y="83.333" width="8.333" height="8.333"/><rect class="cls-1" x="16.667" y="83.333" width="8.333" height="8.333"/><rect class="cls-1" x="25" y="83.333" width="8.333" height="8.333"/><rect class="cls-1" x="33.333" y="83.333" width="8.333" height="8.333"/><rect class="cls-1" x="41.667" y="83.333" width="8.333" height="8.333"/><rect class="cls-1" x="50" y="83.333" width="8.333" height="8.333"/><rect class="cls-1" x="58.333" y="83.333" width="8.333" height="8.333"/><rect class="cls-1" x="66.667" y="83.333" width="8.333" height="8.333"/><rect class="cls-1" x="75" y="83.333" width="8.333" height="8.333"/><rect class="cls-1" x="83.333" y="83.333" width="8.333" height="8.333"/><rect class="cls-1" x="91.667" y="83.333" width="8.333" height="8.333"/><rect class="cls-1" x="100" y="83.333" width="8.333" height="8.333"/><rect class="cls-1" x="108.333" y="83.333" width="8.333" height="8.333"/><rect class="cls-1" x="116.667" y="83.333" width="8.333" height="8.333"/><rect class="cls-1" x="125" y="83.333" width="8.333" height="8.333"/><rect class="cls-1" x="133.333" y="83.333" width="8.333" height="8.333"/><rect class="cls-1" x="141.667" y="83.333" width="8.333" height="8.333"/><rect class="cls-1" x="150" y="83.333" width="8.333" height="8.333"/><rect class="cls-1" x="158.333" y="83.333" width="8.333" height="8.333"/><rect class="cls-1" x="166.667" y="83.333" width="8.333" height="8.333"/><rect class="cls-1" x="175" y="83.333" width="8.333" height="8.333"/><rect class="cls-1" x="183.333" y="83.333" width="8.333" height="8.333"/><rect class="cls-1" x="191.667" y="83.333" width="8.333" height="8.333"/><rect class="cls-1" y="91.667" width="8.333" height="8.333"/><rect class="cls-1" x="8.333" y="91.667" width="8.333" height="8.333"/><rect class="cls-1" x="16.667" y="91.667" width="8.333" height="8.333"/><rect class="cls-1" x="25" y="91.667" width="8.333" height="8.333"/><rect class="cls-1" x="33.333" y="91.667" width="8.333" height="8.333"/><rect class="cls-1" x="41.667" y="91.667" width="8.333" height="8.333"/><rect class="cls-1" x="50" y="91.667" width="8.333" height="8.333"/><rect class="cls-1" x="58.333" y="91.667" width="8.333" height="8.333"/><rect class="cls-1" x="66.667" y="91.667" width="8.333" height="8.333"/><rect class="cls-1" x="75" y="91.667" width="8.333" height="8.333"/><rect class="cls-1" x="83.333" y="91.667" width="8.333" height="8.333"/><rect class="cls-1" x="91.667" y="91.667" width="8.333" height="8.333"/><rect class="cls-1" x="100" y="91.667" width="8.333" height="8.333"/><rect class="cls-1" x="108.333" y="91.667" width="8.333" height="8.333"/><rect class="cls-1" x="116.667" y="91.667" width="8.333" height="8.333"/><rect class="cls-1" x="125" y="91.667" width="8.333" height="8.333"/><rect class="cls-1" x="133.333" y="91.667" width="8.333" height="8.333"/><rect class="cls-1" x="141.667" y="91.667" width="8.333" height="8.333"/><rect class="cls-1" x="150" y="91.667" width="8.333" height="8.333"/><rect class="cls-1" x="158.333" y="91.667" width="8.333" height="8.333"/><rect class="cls-1" x="166.667" y="91.667" width="8.333" height="8.333"/><rect class="cls-1" x="175" y="91.667" width="8.333" height="8.333"/><rect class="cls-1" x="183.333" y="91.667" width="8.333" height="8.333"/><rect class="cls-1" x="191.667" y="91.667" width="8.333" height="8.333"/><rect class="cls-1" y="100" width="8.333" height="8.333"/><rect class="cls-1" x="8.333" y="100" width="8.333" height="8.333"/><rect class="cls-1" x="16.667" y="100" width="8.333" height="8.333"/><rect class="cls-1" x="25" y="100" width="8.333" height="8.333"/><rect class="cls-1" x="33.333" y="100" width="8.333" height="8.333"/><rect class="cls-1" x="41.667" y="100" width="8.333" height="8.333"/><rect class="cls-1" x="50" y="100" width="8.333" height="8.333"/><rect class="cls-1" x="58.333" y="100" width="8.333" height="8.333"/><rect class="cls-1" x="66.667" y="100" width="8.333" height="8.333"/><rect class="cls-1" x="75" y="100" width="8.333" height="8.333"/><rect class="cls-1" x="83.333" y="100" width="8.333" height="8.333"/><rect class="cls-1" x="91.667" y="100" width="8.333" height="8.333"/><rect class="cls-1" x="100" y="100" width="8.333" height="8.333"/><rect class="cls-1" x="108.333" y="100" width="8.333" height="8.333"/><rect class="cls-1" x="116.667" y="100" width="8.333" height="8.333"/><rect class="cls-1" x="125" y="100" width="8.333" height="8.333"/><rect class="cls-1" x="133.333" y="100" width="8.333" height="8.333"/><rect class="cls-1" x="141.667" y="100" width="8.333" height="8.333"/><rect class="cls-1" x="150" y="100" width="8.333" height="8.333"/><rect class="cls-1" x="158.333" y="100" width="8.333" height="8.333"/><rect class="cls-1" x="166.667" y="100" width="8.333" height="8.333"/><rect class="cls-1" x="175" y="100" width="8.333" height="8.333"/><rect class="cls-1" x="183.333" y="100" width="8.333" height="8.333"/><rect class="cls-1" x="191.667" y="100" width="8.333" height="8.333"/><rect class="cls-1" y="108.333" width="8.333" height="8.333"/><rect class="cls-1" x="8.333" y="108.333" width="8.333" height="8.333"/><rect class="cls-1" x="16.667" y="108.333" width="8.333" height="8.333"/><rect class="cls-1" x="25" y="108.333" width="8.333" height="8.333"/><rect class="cls-1" x="33.333" y="108.333" width="8.333" height="8.333"/><rect class="cls-1" x="41.667" y="108.333" width="8.333" height="8.333"/><rect class="cls-1" x="50" y="108.333" width="8.333" height="8.333"/><rect class="cls-1" x="58.333" y="108.333" width="8.333" height="8.333"/><rect class="cls-1" x="66.667" y="108.333" width="8.333" height="8.333"/><rect class="cls-1" x="75" y="108.333" width="8.333" height="8.333"/><rect class="cls-1" x="83.333" y="108.333" width="8.333" height="8.333"/><rect class="cls-1" x="91.667" y="108.333" width="8.333" height="8.333"/><rect class="cls-1" x="100" y="108.333" width="8.333" height="8.333"/><rect class="cls-1" x="108.333" y="108.333" width="8.333" height="8.333"/><rect class="cls-1" x="116.667" y="108.333" width="8.333" height="8.333"/><rect class="cls-1" x="125" y="108.333" width="8.333" height="8.333"/><rect class="cls-1" x="133.333" y="108.333" width="8.333" height="8.333"/><rect class="cls-1" x="141.667" y="108.333" width="8.333" height="8.333"/><rect class="cls-1" x="150" y="108.333" width="8.333" height="8.333"/><rect class="cls-1" x="158.333" y="108.333" width="8.333" height="8.333"/><rect class="cls-1" x="166.667" y="108.333" width="8.333" height="8.333"/><rect class="cls-1" x="175" y="108.333" width="8.333" height="8.333"/><rect class="cls-1" x="183.333" y="108.333" width="8.333" height="8.333"/><rect class="cls-1" x="191.667" y="108.333" width="8.333" height="8.333"/><rect class="cls-1" y="116.667" width="8.333" height="8.333"/><rect class="cls-1" x="8.333" y="116.667" width="8.333" height="8.333"/><rect class="cls-1" x="16.667" y="116.667" width="8.333" height="8.333"/><rect class="cls-1" x="25" y="116.667" width="8.333" height="8.333"/><rect class="cls-1" x="33.333" y="116.667" width="8.333" height="8.333"/><rect class="cls-1" x="41.667" y="116.667" width="8.333" height="8.333"/><rect class="cls-1" x="50" y="116.667" width="8.333" height="8.333"/><rect class="cls-1" x="58.333" y="116.667" width="8.333" height="8.333"/><rect class="cls-1" x="66.667" y="116.667" width="8.333" height="8.333"/><rect class="cls-1" x="75" y="116.667" width="8.333" height="8.333"/><rect class="cls-1" x="83.333" y="116.667" width="8.333" height="8.333"/><rect class="cls-1" x="91.667" y="116.667" width="8.333" height="8.333"/><rect class="cls-1" x="100" y="116.667" width="8.333" height="8.333"/><rect class="cls-1" x="108.333" y="116.667" width="8.333" height="8.333"/><rect class="cls-1" x="116.667" y="116.667" width="8.333" height="8.333"/><rect class="cls-1" x="125" y="116.667" width="8.333" height="8.333"/><rect class="cls-1" x="133.333" y="116.667" width="8.333" height="8.333"/><rect class="cls-1" x="141.667" y="116.667" width="8.333" height="8.333"/><rect class="cls-1" x="150" y="116.667" width="8.333" height="8.333"/><rect class="cls-1" x="158.333" y="116.667" width="8.333" height="8.333"/><rect class="cls-1" x="166.667" y="116.667" width="8.333" height="8.333"/><rect class="cls-1" x="175" y="116.667" width="8.333" height="8.333"/><rect class="cls-1" x="183.333" y="116.667" width="8.333" height="8.333"/><rect class="cls-1" x="191.667" y="116.667" width="8.333" height="8.333"/><rect class="cls-1" y="125" width="8.333" height="8.333"/><rect class="cls-1" x="8.333" y="125" width="8.333" height="8.333"/><rect class="cls-1" x="16.667" y="125" width="8.333" height="8.333"/><rect class="cls-1" x="25" y="125" width="8.333" height="8.333"/><rect class="cls-1" x="33.333" y="125" width="8.333" height="8.333"/><rect class="cls-1" x="41.667" y="125" width="8.333" height="8.333"/><rect class="cls-1" x="50" y="125" width="8.333" height="8.333"/><rect class="cls-1" x="58.333" y="125" width="8.333" height="8.333"/><rect class="cls-1" x="66.667" y="125" width="8.333" height="8.333"/><rect class="cls-1" x="75" y="125" width="8.333" height="8.333"/><rect class="cls-1" x="83.333" y="125" width="8.333" height="8.333"/><rect class="cls-1" x="91.667" y="125" width="8.333" height="8.333"/><rect class="cls-1" x="100" y="125" width="8.333" height="8.333"/><rect class="cls-1" x="108.333" y="125" width="8.333" height="8.333"/><rect class="cls-1" x="116.667" y="125" width="8.333" height="8.333"/><rect class="cls-1" x="125" y="125" width="8.333" height="8.333"/><rect class="cls-1" x="133.333" y="125" width="8.333" height="8.333"/><rect class="cls-1" x="141.667" y="125" width="8.333" height="8.333"/><rect class="cls-1" x="150" y="125" width="8.333" height="8.333"/><rect class="cls-1" x="158.333" y="125" width="8.333" height="8.333"/><rect class="cls-1" x="166.667" y="125" width="8.333" height="8.333"/><rect class="cls-1" x="175" y="125" width="8.333" height="8.333"/><rect class="cls-1" x="183.333" y="125" width="8.333" height="8.333"/><rect class="cls-1" x="191.667" y="125" width="8.333" height="8.333"/><rect class="cls-1" y="133.333" width="8.333" height="8.333"/><rect class="cls-1" x="8.333" y="133.333" width="8.333" height="8.333"/><rect class="cls-1" x="16.667" y="133.333" width="8.333" height="8.333"/><rect class="cls-1" x="25" y="133.333" width="8.333" height="8.333"/><rect class="cls-1" x="33.333" y="133.333" width="8.333" height="8.333"/><rect class="cls-1" x="41.667" y="133.333" width="8.333" height="8.333"/><rect class="cls-1" x="50" y="133.333" width="8.333" height="8.333"/><rect class="cls-1" x="58.333" y="133.333" width="8.333" height="8.333"/><rect class="cls-1" x="66.667" y="133.333" width="8.333" height="8.333"/><rect class="cls-1" x="75" y="133.333" width="8.333" height="8.333"/><rect class="cls-1" x="83.333" y="133.333" width="8.333" height="8.333"/><rect class="cls-1" x="91.667" y="133.333" width="8.333" height="8.333"/><rect class="cls-1" x="100" y="133.333" width="8.333" height="8.333"/><rect class="cls-1" x="108.333" y="133.333" width="8.333" height="8.333"/><rect class="cls-1" x="116.667" y="133.333" width="8.333" height="8.333"/><rect class="cls-1" x="125" y="133.333" width="8.333" height="8.333"/><rect class="cls-1" x="133.333" y="133.333" width="8.333" height="8.333"/><rect class="cls-1" x="141.667" y="133.333" width="8.333" height="8.333"/><rect class="cls-1" x="150" y="133.333" width="8.333" height="8.333"/><rect class="cls-1" x="158.333" y="133.333" width="8.333" height="8.333"/><rect class="cls-1" x="166.667" y="133.333" width="8.333" height="8.333"/><rect class="cls-1" x="175" y="133.333" width="8.333" height="8.333"/><rect class="cls-1" x="183.333" y="133.333" width="8.333" height="8.333"/><rect class="cls-1" x="191.667" y="133.333" width="8.333" height="8.333"/><rect class="cls-1" y="141.667" width="8.333" height="8.333"/><rect class="cls-1" x="8.333" y="141.667" width="8.333" height="8.333"/><rect class="cls-1" x="16.667" y="141.667" width="8.333" height="8.333"/><rect class="cls-1" x="25" y="141.667" width="8.333" height="8.333"/><rect class="cls-1" x="33.333" y="141.667" width="8.333" height="8.333"/><rect class="cls-1" x="41.667" y="141.667" width="8.333" height="8.333"/><rect class="cls-1" x="50" y="141.667" width="8.333" height="8.333"/><rect class="cls-1" x="58.333" y="141.667" width="8.333" height="8.333"/><rect class="cls-1" x="66.667" y="141.667" width="8.333" height="8.333"/><rect class="cls-1" x="75" y="141.667" width="8.333" height="8.333"/><rect class="cls-1" x="83.333" y="141.667" width="8.333" height="8.333"/><rect class="cls-1" x="91.667" y="141.667" width="8.333" height="8.333"/><rect class="cls-1" x="100" y="141.667" width="8.333" height="8.333"/><rect class="cls-1" x="108.333" y="141.667" width="8.333" height="8.333"/><rect class="cls-1" x="116.667" y="141.667" width="8.333" height="8.333"/><rect class="cls-1" x="125" y="141.667" width="8.333" height="8.333"/><rect class="cls-1" x="133.333" y="141.667" width="8.333" height="8.333"/><rect class="cls-1" x="141.667" y="141.667" width="8.333" height="8.333"/><rect class="cls-1" x="150" y="141.667" width="8.333" height="8.333"/><rect class="cls-1" x="158.333" y="141.667" width="8.333" height="8.333"/><rect class="cls-1" x="166.667" y="141.667" width="8.333" height="8.333"/><rect class="cls-1" x="175" y="141.667" width="8.333" height="8.333"/><rect class="cls-1" x="183.333" y="141.667" width="8.333" height="8.333"/><rect class="cls-1" x="191.667" y="141.667" width="8.333" height="8.333"/><rect class="cls-1" y="150" width="8.333" height="8.333"/><rect class="cls-1" x="8.333" y="150" width="8.333" height="8.333"/><rect class="cls-1" x="16.667" y="150" width="8.333" height="8.333"/><rect class="cls-1" x="25" y="150" width="8.333" height="8.333"/><rect class="cls-1" x="33.333" y="150" width="8.333" height="8.333"/><rect class="cls-1" x="41.667" y="150" width="8.333" height="8.333"/><rect class="cls-1" x="50" y="150" width="8.333" height="8.333"/><rect class="cls-1" x="58.333" y="150" width="8.333" height="8.333"/><rect class="cls-1" x="66.667" y="150" width="8.333" height="8.333"/><rect class="cls-1" x="75" y="150" width="8.333" height="8.333"/><rect class="cls-1" x="83.333" y="150" width="8.333" height="8.333"/><rect class="cls-1" x="91.667" y="150" width="8.333" height="8.333"/><rect class="cls-1" x="100" y="150" width="8.333" height="8.333"/><rect class="cls-1" x="108.333" y="150" width="8.333" height="8.333"/><rect class="cls-1" x="116.667" y="150" width="8.333" height="8.333"/><rect class="cls-1" x="125" y="150" width="8.333" height="8.333"/><rect class="cls-1" x="133.333" y="150" width="8.333" height="8.333"/><rect class="cls-1" x="141.667" y="150" width="8.333" height="8.333"/><rect class="cls-1" x="150" y="150" width="8.333" height="8.333"/><rect class="cls-1" x="158.333" y="150" width="8.333" height="8.333"/><rect class="cls-1" x="166.667" y="150" width="8.333" height="8.333"/><rect class="cls-1" x="175" y="150" width="8.333" height="8.333"/><rect class="cls-1" x="183.333" y="150" width="8.333" height="8.333"/><rect class="cls-1" x="191.667" y="150" width="8.333" height="8.333"/><rect class="cls-1" y="158.333" width="8.333" height="8.333"/><rect class="cls-1" x="8.333" y="158.333" width="8.333" height="8.333"/><rect class="cls-1" x="16.667" y="158.333" width="8.333" height="8.333"/><rect class="cls-1" x="25" y="158.333" width="8.333" height="8.333"/><rect class="cls-1" x="33.333" y="158.333" width="8.333" height="8.333"/><rect class="cls-1" x="41.667" y="158.333" width="8.333" height="8.333"/><rect class="cls-1" x="50" y="158.333" width="8.333" height="8.333"/><rect class="cls-1" x="58.333" y="158.333" width="8.333" height="8.333"/><rect class="cls-1" x="66.667" y="158.333" width="8.333" height="8.333"/><rect class="cls-1" x="75" y="158.333" width="8.333" height="8.333"/><rect class="cls-1" x="83.333" y="158.333" width="8.333" height="8.333"/><rect class="cls-1" x="91.667" y="158.333" width="8.333" height="8.333"/><rect class="cls-1" x="100" y="158.333" width="8.333" height="8.333"/><rect class="cls-1" x="108.333" y="158.333" width="8.333" height="8.333"/><rect class="cls-1" x="116.667" y="158.333" width="8.333" height="8.333"/><rect class="cls-1" x="125" y="158.333" width="8.333" height="8.333"/><rect class="cls-1" x="133.333" y="158.333" width="8.333" height="8.333"/><rect class="cls-1" x="141.667" y="158.333" width="8.333" height="8.333"/><rect class="cls-1" x="150" y="158.333" width="8.333" height="8.333"/><rect class="cls-1" x="158.333" y="158.333" width="8.333" height="8.333"/><rect class="cls-1" x="166.667" y="158.333" width="8.333" height="8.333"/><rect class="cls-1" x="175" y="158.333" width="8.333" height="8.333"/><rect class="cls-1" x="183.333" y="158.333" width="8.333" height="8.333"/><rect class="cls-1" x="191.667" y="158.333" width="8.333" height="8.333"/><rect class="cls-1" y="166.667" width="8.333" height="8.333"/><rect class="cls-1" x="8.333" y="166.667" width="8.333" height="8.333"/><rect class="cls-1" x="16.667" y="166.667" width="8.333" height="8.333"/><rect class="cls-1" x="25" y="166.667" width="8.333" height="8.333"/><rect class="cls-1" x="33.333" y="166.667" width="8.333" height="8.333"/><rect class="cls-1" x="41.667" y="166.667" width="8.333" height="8.333"/><rect class="cls-1" x="50" y="166.667" width="8.333" height="8.333"/><rect class="cls-1" x="58.333" y="166.667" width="8.333" height="8.333"/><rect class="cls-1" x="66.667" y="166.667" width="8.333" height="8.333"/><rect class="cls-1" x="75" y="166.667" width="8.333" height="8.333"/><rect class="cls-1" x="83.333" y="166.667" width="8.333" height="8.333"/><rect class="cls-1" x="91.667" y="166.667" width="8.333" height="8.333"/><rect class="cls-1" x="100" y="166.667" width="8.333" height="8.333"/><rect class="cls-1" x="108.333" y="166.667" width="8.333" height="8.333"/><rect class="cls-1" x="116.667" y="166.667" width="8.333" height="8.333"/><rect class="cls-1" x="125" y="166.667" width="8.333" height="8.333"/><rect class="cls-1" x="133.333" y="166.667" width="8.333" height="8.333"/><rect class="cls-1" x="141.667" y="166.667" width="8.333" height="8.333"/><rect class="cls-1" x="150" y="166.667" width="8.333" height="8.333"/><rect class="cls-1" x="158.333" y="166.667" width="8.333" height="8.333"/><rect class="cls-1" x="166.667" y="166.667" width="8.333" height="8.333"/><rect class="cls-1" x="175" y="166.667" width="8.333" height="8.333"/><rect class="cls-1" x="183.333" y="166.667" width="8.333" height="8.333"/><rect class="cls-1" x="191.667" y="166.667" width="8.333" height="8.333"/><rect class="cls-1" y="175" width="8.333" height="8.333"/><rect class="cls-1" x="8.333" y="175" width="8.333" height="8.333"/><rect class="cls-1" x="16.667" y="175" width="8.333" height="8.333"/><rect class="cls-1" x="25" y="175" width="8.333" height="8.333"/><rect class="cls-1" x="33.333" y="175" width="8.333" height="8.333"/><rect class="cls-1" x="41.667" y="175" width="8.333" height="8.333"/><rect class="cls-1" x="50" y="175" width="8.333" height="8.333"/><rect class="cls-1" x="58.333" y="175" width="8.333" height="8.333"/><rect class="cls-1" x="66.667" y="175" width="8.333" height="8.333"/><rect class="cls-1" x="75" y="175" width="8.333" height="8.333"/><rect class="cls-1" x="83.333" y="175" width="8.333" height="8.333"/><rect class="cls-1" x="91.667" y="175" width="8.333" height="8.333"/><rect class="cls-1" x="100" y="175" width="8.333" height="8.333"/><rect class="cls-1" x="108.333" y="175" width="8.333" height="8.333"/><rect class="cls-1" x="116.667" y="175" width="8.333" height="8.333"/><rect class="cls-1" x="125" y="175" width="8.333" height="8.333"/><rect class="cls-1" x="133.333" y="175" width="8.333" height="8.333"/><rect class="cls-1" x="141.667" y="175" width="8.333" height="8.333"/><rect class="cls-1" x="150" y="175" width="8.333" height="8.333"/><rect class="cls-1" x="158.333" y="175" width="8.333" height="8.333"/><rect class="cls-1" x="166.667" y="175" width="8.333" height="8.333"/><rect class="cls-1" x="175" y="175" width="8.333" height="8.333"/><rect class="cls-1" x="183.333" y="175" width="8.333" height="8.333"/><rect class="cls-1" x="191.667" y="175" width="8.333" height="8.333"/><rect class="cls-1" y="183.333" width="8.333" height="8.333"/><rect class="cls-1" x="8.333" y="183.333" width="8.333" height="8.333"/><rect class="cls-1" x="16.667" y="183.333" width="8.333" height="8.333"/><rect class="cls-1" x="25" y="183.333" width="8.333" height="8.333"/><rect class="cls-1" x="33.333" y="183.333" width="8.333" height="8.333"/><rect class="cls-1" x="41.667" y="183.333" width="8.333" height="8.333"/><rect class="cls-1" x="50" y="183.333" width="8.333" height="8.333"/><rect class="cls-1" x="58.333" y="183.333" width="8.333" height="8.333"/><rect class="cls-1" x="66.667" y="183.333" width="8.333" height="8.333"/><rect class="cls-1" x="75" y="183.333" width="8.333" height="8.333"/><rect class="cls-1" x="83.333" y="183.333" width="8.333" height="8.333"/><rect class="cls-1" x="91.667" y="183.333" width="8.333" height="8.333"/><rect class="cls-1" x="100" y="183.333" width="8.333" height="8.333"/><rect class="cls-1" x="108.333" y="183.333" width="8.333" height="8.333"/><rect class="cls-1" x="116.667" y="183.333" width="8.333" height="8.333"/><rect class="cls-1" x="125" y="183.333" width="8.333" height="8.333"/><rect class="cls-1" x="133.333" y="183.333" width="8.333" height="8.333"/><rect class="cls-1" x="141.667" y="183.333" width="8.333" height="8.333"/><rect class="cls-1" x="150" y="183.333" width="8.333" height="8.333"/><rect class="cls-1" x="158.333" y="183.333" width="8.333" height="8.333"/><rect class="cls-1" x="166.667" y="183.333" width="8.333" height="8.333"/><rect class="cls-1" x="175" y="183.333" width="8.333" height="8.333"/><rect class="cls-1" x="183.333" y="183.333" width="8.333" height="8.333"/><rect class="cls-1" x="191.667" y="183.333" width="8.333" height="8.333"/><rect class="cls-1" y="191.667" width="8.333" height="8.333"/><rect class="cls-1" x="8.333" y="191.667" width="8.333" height="8.333"/><rect class="cls-1" x="16.667" y="191.667" width="8.333" height="8.333"/><rect class="cls-1" x="25" y="191.667" width="8.333" height="8.333"/><rect class="cls-1" x="33.333" y="191.667" width="8.333" height="8.333"/><rect class="cls-1" x="41.667" y="191.667" width="8.333" height="8.333"/><rect class="cls-1" x="50" y="191.667" width="8.333" height="8.333"/><rect class="cls-1" x="58.333" y="191.667" width="8.333" height="8.333"/><rect class="cls-1" x="66.667" y="191.667" width="8.333" height="8.333"/><rect class="cls-1" x="75" y="191.667" width="8.333" height="8.333"/><rect class="cls-1" x="83.333" y="191.667" width="8.333" height="8.333"/><rect class="cls-1" x="91.667" y="191.667" width="8.333" height="8.333"/><rect class="cls-1" x="100" y="191.667" width="8.333" height="8.333"/><rect class="cls-1" x="108.333" y="191.667" width="8.333" height="8.333"/><rect class="cls-1" x="116.667" y="191.667" width="8.333" height="8.333"/><rect class="cls-1" x="125" y="191.667" width="8.333" height="8.333"/><rect class="cls-1" x="133.333" y="191.667" width="8.333" height="8.333"/><rect class="cls-1" x="141.667" y="191.667" width="8.333" height="8.333"/><rect class="cls-1" x="150" y="191.667" width="8.333" height="8.333"/><rect class="cls-1" x="158.333" y="191.667" width="8.333" height="8.333"/><rect class="cls-1" x="166.667" y="191.667" width="8.333" height="8.333"/><rect class="cls-1" x="175" y="191.667" width="8.333" height="8.333"/><rect class="cls-1" x="183.333" y="191.667" width="8.333" height="8.333"/><rect class="cls-1" x="191.667" y="191.667" width="8.333" height="8.333"/><rect class="cls-2" x="16.667" y="16.667" width="166.667" height="166.667"/></g><g id="Capa_1" data-name="Capa 1"><polygon class="cls-3" points="150.644 194.439 195 150.085 195 4.449 5 4.458 5 194.449 150.654 194.449 150.644 194.439"/><path id="Trazado_53153" data-name="Trazado 53153" class="cls-4" d="M195,150.1H150.644v44.354Z"/><polygon class="cls-5" points="55.793 144.904 146.491 149.951 136.909 129.989 50.349 139.46 55.793 144.904"/><path class="cls-6" d="M82.117,104.261l8.86,8.71c-8.232,7.007-23.789,20.415-34.6,29.344l-.4.33a2.863,2.863,0,0,1-3.989-4.078l.725-.844C61.36,127.669,73.515,114.261,82.117,104.261Z"/><path class="cls-7" d="M73.675,81.74c11.31-8.492,17.179-11.534,28.314-20.013a3.414,3.414,0,0,0,.938-2.668c-.343-3.262,1.2-5.368,3.474-7.385,11.267-9.974,51.567,28.79,40.006,39.59-1.406,2.716-3.975,3.969-7.314,3.547-.62-.079-1.231-.226-1.921-.355-8.813,11.6-12.262,17.838-20.611,28.831.84,2.631,1.978,4.7,2.055,6.807.105,2.833-1.634,4.95-4.4,5.943a6.566,6.566,0,0,1-7.265-1.648C91.728,124.251,71.939,102.95,64.382,92.063c-3.891-3.886-4.4-7.538-1.554-10.73C65.537,78.293,69.31,78.382,73.675,81.74Z"/><ellipse class="cls-8" cx="126.586" cy="69.175" rx="3.55" ry="6.908" transform="translate(-14.006 101.473) rotate(-41.593)"/><path class="cls-8" d="M104.672,61.926a57.018,57.018,0,0,0,3.531,8.042,45.375,45.375,0,0,0,4.836,7.38,56.6,56.6,0,0,0,6.292,6.3,48.431,48.431,0,0,0,7.255,5.257,48.808,48.808,0,0,1-7.671-4.735,57.5,57.5,0,0,1-6.875-5.933,47.094,47.094,0,0,1-5.568-7.259,59.21,59.21,0,0,1-4.306-8.129Z"/><path class="cls-8" d="M76.97,83.131a73.755,73.755,0,0,0,4.912,10.21,58.623,58.623,0,0,0,6.565,9.3c1.264,1.4,2.614,2.768,4.031,4.066,1.4,1.314,2.863,2.564,4.362,3.77a62.461,62.461,0,0,0,9.589,6.454,62.953,62.953,0,0,1-10.1-5.762c-1.6-1.105-3.174-2.258-4.691-3.483-1.531-1.206-3-2.489-4.437-3.858a60.851,60.851,0,0,1-7.5-9.11,76.312,76.312,0,0,1-5.915-10.288Z"/></g></svg>