<svg xmlns="http://www.w3.org/2000/svg" viewBox="0 0 200 200"><defs><style>.cls-1{fill:#ffe082;}.cls-2{fill:#c70613;}.cls-3{fill:#fff;}.cls-4{fill:#9c9c9b;}</style></defs><title>post-it-pin-icon-red-corner</title><g id="Capa_1" data-name="Capa 1"><polygon class="cls-1" points="150.644 194.439 195 150.085 195 4.449 5 4.458 5 194.449 150.654 194.449 150.644 194.439"/><path id="Trazado_53153" data-name="Trazado 53153" class="cls-2" d="M195,150.1H150.644v44.354Z"/><path class="cls-3" d="M85.955,80.075c-3.47-2.669-6.469-2.74-8.622-.324-2.262,2.538-1.858,5.441,1.235,8.53q10.743,10.731,21.511,21.439,6.15,6.119,12.33,12.207a5.218,5.218,0,0,0,5.775,1.31,4.763,4.763,0,0,0,3.5-4.724c-.062-1.676-.966-3.32-1.633-5.412,6.636-8.738,13.622-17.938,20.628-27.162.549.1,1.034.219,1.527.282a5.318,5.318,0,0,0,5.814-2.82,5.5,5.5,0,0,0-1.082-6.39q-12.107-12.129-24.287-24.185a5.474,5.474,0,0,0-9.194,4.975,2.714,2.714,0,0,1-.746,2.12C103.856,66.662,94.946,73.325,85.955,80.075Zm2.982,23.248L51.4,146.956l.684.653L95.98,110.246Z"/><path class="cls-2" d="M85.955,80.075c8.991-6.75,17.9-13.413,26.752-20.154a2.714,2.714,0,0,0,.746-2.12,5.474,5.474,0,0,1,9.194-4.975q12.185,12.051,24.287,24.185a5.5,5.5,0,0,1,1.082,6.39,5.318,5.318,0,0,1-5.814,2.82c-.493-.063-.978-.179-1.527-.282-7.006,9.224-13.992,18.424-20.628,27.162.667,2.092,1.571,3.736,1.633,5.412a4.763,4.763,0,0,1-3.5,4.724,5.218,5.218,0,0,1-5.775-1.31q-6.183-6.087-12.33-12.207Q89.314,99.01,78.568,88.281c-3.093-3.089-3.5-5.992-1.235-8.53C79.486,77.335,82.485,77.406,85.955,80.075Z"/><path class="cls-4" d="M88.937,103.323l7.043,6.923L52.086,147.609l-.684-.653Z"/></g></svg>