<svg id="icons" xmlns="http://www.w3.org/2000/svg" viewBox="0 0 200 200"><defs><style>.cls-1{fill:#476077;}</style></defs><title>user_einladen_35x35</title><g id="Grupo_6445" data-name="Grupo 6445"><path id="Trazado_18335" data-name="Trazado 18335" class="cls-1" d="M79.544,105.144c18.86,0,34.152-14.9,34.158-33.3S98.42,38.534,79.56,38.528,45.408,53.429,45.4,71.823v.005h0C45.414,90.217,60.69,105.124,79.544,105.144Zm0-58.437c14.227,0,25.759,11.255,25.756,25.132h0c0,13.877-11.539,25.124-25.767,25.121h0c-14.217-.009-25.739-11.249-25.745-25.116C53.8,57.973,65.323,46.73,79.544,46.707Z"/><g id="Grupo_6110" data-name="Grupo 6110"><path id="Trazado_34254" data-name="Trazado 34254" class="cls-1" d="M95.83,114.165a139.076,139.076,0,0,0-76.524,11.219,3.6,3.6,0,0,0-1.811,4.835,3.5,3.5,0,0,0,.3.509l.1.137a3.776,3.776,0,0,0,4.659,1.2,132.547,132.547,0,0,1,54.845-11.855,131.187,131.187,0,0,1,17.57,1.22A46.785,46.785,0,0,1,95.83,114.165Z"/><path id="Trazado_34255" data-name="Trazado 34255" class="cls-1" d="M143.8,85.288c-21.569,0-39.055,17.055-39.055,38.092s17.486,38.092,39.055,38.092,39.055-17.054,39.055-38.092C182.83,102.352,165.358,85.311,143.8,85.288Zm17.71,40.917H146.7v14.449a2.866,2.866,0,0,1-2.9,2.829h0a2.866,2.866,0,0,1-2.9-2.829h0V126.205H126.089a2.866,2.866,0,0,1-2.9-2.83h0a2.866,2.866,0,0,1,2.9-2.83H140.9V106.1a2.866,2.866,0,0,1,2.9-2.829h0a2.861,2.861,0,0,1,2.9,2.819v14.454h14.82a2.866,2.866,0,0,1,2.9,2.83h0a2.866,2.866,0,0,1-2.9,2.83h-.011Z"/></g></g></svg>