<svg xmlns="http://www.w3.org/2000/svg" viewBox="0 0 200 200"><defs><style>.cls-1{fill:none;}.cls-2{fill:#005af5;}</style></defs><title>video_over_white_24x24_1</title><g id="Capa_1" data-name="Capa 1"><rect class="cls-1" width="200" height="200"/><g id="Grupo_6052" data-name="Grupo 6052"><path id="Trazado_18379" data-name="Trazado 18379" class="cls-2" d="M183.336,148.328a39.875,39.875,0,0,1-1.183,8.334,47.3,47.3,0,0,1-2.5,8.091,31.662,31.662,0,0,1-14.442,12.55,45.826,45.826,0,0,1-22.008,6.042,44.534,44.534,0,0,1-6.225-.425,49.169,49.169,0,0,1-6.809-1.467c-2.5-.725-4.4-1.291-5.617-1.716s-3.408-1.259-6.575-2.442-5.091-1.892-5.833-2.125a107.085,107.085,0,0,1-20.717-9.825,176.2,176.2,0,0,1-31.308-25.508,176.7,176.7,0,0,1-25.508-31.3,107.626,107.626,0,0,1-9.775-20.684c-.225-.725-.934-2.65-2.142-5.833s-1.983-5.358-2.425-6.575-1.008-3.092-1.717-5.617a53.114,53.114,0,0,1-1.483-6.808,47.64,47.64,0,0,1-.408-6.225,45.923,45.923,0,0,1,6.025-22.008,31.662,31.662,0,0,1,12.55-14.442,47.954,47.954,0,0,1,8.116-2.5,39.818,39.818,0,0,1,8.334-1.183,6.91,6.91,0,0,1,2.5.35q2.117.715,6.274,9c.834,1.5,2.05,3.625,3.551,6.4s2.866,5.267,4.166,7.5,2.5,4.366,3.675,6.325q.342.476,2.067,2.966a34.2,34.2,0,0,1,2.55,4.167A7.7,7.7,0,0,1,77.3,56.7a9.871,9.871,0,0,1-3.375,5.925,58.264,58.264,0,0,1-7.334,6.509,72.856,72.856,0,0,0-7.35,6.275,9.056,9.056,0,0,0-3.375,5.442,8.233,8.233,0,0,0,.6,2.666,22.524,22.524,0,0,0,1.008,2.425c.267.567.833,1.5,1.667,2.85s1.275,2.084,1.359,2.242a123.471,123.471,0,0,0,20.591,27.825,123.77,123.77,0,0,0,27.8,20.592c.175.091.917.533,2.259,1.358s2.283,1.375,2.825,1.666a24.441,24.441,0,0,0,2.442,1.009,8.016,8.016,0,0,0,2.649.583,9.072,9.072,0,0,0,5.459-3.333,72.985,72.985,0,0,0,6.275-7.35,57.3,57.3,0,0,1,6.508-7.334,9.834,9.834,0,0,1,5.925-3.374,7.706,7.706,0,0,1,3.334.833,34.137,34.137,0,0,1,4.167,2.541c1.666,1.15,2.633,1.842,2.95,2.067,1.975,1.183,4.083,2.4,6.341,3.675s4.758,2.65,7.5,4.167,4.875,2.683,6.384,3.55q8.3,4.137,9.016,6.275A6.75,6.75,0,0,1,183.336,148.328Z"/></g></g></svg>