<svg id="icons" xmlns="http://www.w3.org/2000/svg" viewBox="0 0 200 200"><defs><style>.cls-1{fill:#005af5;}</style></defs><title>video_over_white_24x24</title><path id="Trazado_33636" data-name="Trazado 33636" class="cls-1" d="M141.705,84.872v30.256a4.654,4.654,0,0,0,2.345,4.038l32.314,18.487a4.652,4.652,0,0,0,6.969-4.038V66.394a4.652,4.652,0,0,0-6.969-4.038L144.05,80.834A4.654,4.654,0,0,0,141.705,84.872Z"/><path id="Trazado_33637" data-name="Trazado 33637" class="cls-1" d="M120.891,58.374H27.232a10.4,10.4,0,0,0-10.4,10.4v62.448a10.393,10.393,0,0,0,10.384,10.4h93.677a10.394,10.394,0,0,0,10.4-10.383V68.785A10.412,10.412,0,0,0,120.891,58.374Z"/></svg>