<svg id="icons" xmlns="http://www.w3.org/2000/svg" viewBox="0 0 200 200"><defs><style>.cls-1{fill:none;}.cls-2,.cls-3{fill:#476077;}.cls-2{fill-rule:evenodd;}</style></defs><title>x-contact-list</title><rect class="cls-1" width="200" height="200"/><g id="ic_expand_close" data-name="ic expand close"><path id="path" class="cls-2" d="M154.554,49.554l-4.108-4.108a5.344,5.344,0,0,0-7.558,0L100,88.333,57.112,45.446a5.344,5.344,0,0,0-7.558,0l-4.108,4.108a5.344,5.344,0,0,0,0,7.558L88.333,100,45.446,142.888a5.344,5.344,0,0,0,0,7.558l4.108,4.108a5.344,5.344,0,0,0,7.558,0L100,111.667l42.888,42.887a5.344,5.344,0,0,0,7.558,0l4.108-4.108a5.344,5.344,0,0,0,0-7.558L111.667,100l42.887-42.888A5.344,5.344,0,0,0,154.554,49.554Z"/></g><g id="ic_expand_close-2" data-name="ic expand close"><path id="path-2" data-name="path" class="cls-3" d="M154.554,49.554l-4.108-4.108a5.344,5.344,0,0,0-7.558,0L100,88.333,57.112,45.446a5.344,5.344,0,0,0-7.558,0l-4.108,4.108a5.344,5.344,0,0,0,0,7.558L88.333,100,45.446,142.888a5.344,5.344,0,0,0,0,7.558l4.108,4.108a5.344,5.344,0,0,0,7.558,0L100,111.667l42.888,42.887a5.344,5.344,0,0,0,7.558,0l4.108-4.108a5.344,5.344,0,0,0,0-7.558L111.667,100l42.887-42.888A5.344,5.344,0,0,0,154.554,49.554Z"/></g></svg>