<svg xmlns="http://www.w3.org/2000/svg" xmlns:xlink="http://www.w3.org/1999/xlink" viewBox="0 0 584.004 584.004"><defs><style>.cls-1{fill:#b2ffff;}.cls-2{fill:url(#Degradado_sin_nombre_44);}.cls-3{fill:#9c9c9b;}.cls-4{fill:#c70613;}.cls-5{fill:#9a0613;}.cls-6{fill:none;stroke:#71d3f7;stroke-miterlimit:10;}.cls-7{fill:#7cd7f8;}</style><linearGradient id="Degradado_sin_nombre_44" x1="288.07" y1="49.766" x2="324.083" y2="49.766" gradientUnits="userSpaceOnUse"><stop offset="0.166" stop-color="#8ec6f1"/><stop offset="0.563" stop-color="#93c6eb" stop-opacity="0.516"/><stop offset="1" stop-color="#98c6e4" stop-opacity="0"/></linearGradient></defs><title>post-it-pin blue lines</title><g id="Capa_1" data-name="Capa 1"><path id="Trazado_53152" data-name="Trazado 53152" class="cls-1" d="M0,.029V584H505.1V505.075H584V0Z"/><polygon class="cls-2" points="290.109 51.614 324.083 53.504 320.494 46.027 288.07 49.575 290.109 51.614"/><path class="cls-3" d="M299.97,36.39l3.319,3.262c-3.084,2.625-8.911,7.648-12.962,10.992l-.15.124a1.072,1.072,0,0,1-1.494-1.528l.272-.316C292.2,45.158,296.748,40.136,299.97,36.39Z"/><path class="cls-4" d="M296.808,27.954c4.236-3.181,6.434-4.32,10.605-7.5a1.279,1.279,0,0,0,.352-1,3.07,3.07,0,0,1,1.3-2.766c4.221-3.736,19.316,10.784,14.985,14.83a2.5,2.5,0,0,1-2.739,1.328c-.232-.029-.461-.084-.72-.133-3.3,4.347-4.593,6.682-7.72,10.8a10.933,10.933,0,0,1,.77,2.55,2.245,2.245,0,0,1-1.648,2.226,2.458,2.458,0,0,1-2.721-.617c-5.7-3.8-13.116-11.776-15.946-15.854-1.458-1.456-1.648-2.824-.583-4.019C293.759,26.663,295.173,26.7,296.808,27.954Z"/><ellipse class="cls-5" cx="316.627" cy="23.248" rx="1.33" ry="2.588" transform="translate(64.396 216.05) rotate(-41.593)"/><path class="cls-5" d="M308.418,20.532a21.356,21.356,0,0,0,1.323,3.012,17.006,17.006,0,0,0,1.811,2.765,21.255,21.255,0,0,0,2.357,2.359,18.182,18.182,0,0,0,2.718,1.969,18.337,18.337,0,0,1-2.874-1.774,21.638,21.638,0,0,1-2.575-2.222,17.67,17.67,0,0,1-2.085-2.719,22.189,22.189,0,0,1-1.613-3.045Z"/><path class="cls-5" d="M298.042,28.475a27.6,27.6,0,0,0,1.84,3.825,22.018,22.018,0,0,0,2.459,3.483,27.286,27.286,0,0,0,3.144,2.935,23.344,23.344,0,0,0,3.592,2.417,23.432,23.432,0,0,1-3.784-2.158,27.72,27.72,0,0,1-3.419-2.75,22.747,22.747,0,0,1-2.811-3.412,28.633,28.633,0,0,1-2.216-3.854Z"/><line class="cls-6" y1="121.998" x2="584.004" y2="121.998"/><line class="cls-6" y1="163.996" x2="584.004" y2="163.996"/><line class="cls-6" y1="205.994" x2="584.004" y2="205.994"/><line class="cls-6" y1="247.992" x2="584.004" y2="247.992"/><line class="cls-6" y1="289.99" x2="584.004" y2="289.99"/><line class="cls-6" y1="331.988" x2="584.004" y2="331.988"/><line class="cls-6" y1="373.985" x2="584.004" y2="373.985"/><line class="cls-6" y1="415.983" x2="584.004" y2="415.983"/><line class="cls-6" y1="457.981" x2="584.004" y2="457.981"/><line class="cls-6" y1="499.979" x2="584.004" y2="499.979"/><line class="cls-6" y1="541.977" x2="522.855" y2="541.977"/><path id="Trazado_53153" data-name="Trazado 53153" class="cls-7" d="M584,505.075H505.1v78.9Z"/></g></svg>