<svg xmlns="http://www.w3.org/2000/svg" xmlns:xlink="http://www.w3.org/1999/xlink" viewBox="0 0 584.004 584.004"><defs><style>.cls-1{fill:#ffe082;}.cls-2{fill:#ffcf3d;}.cls-3{fill:url(#Degradado_sin_nombre_32);}.cls-4{fill:#9c9c9b;}.cls-5{fill:#c70613;}.cls-6{fill:#9a0613;}</style><linearGradient id="Degradado_sin_nombre_32" x1="288.07" y1="49.766" x2="324.083" y2="49.766" gradientUnits="userSpaceOnUse"><stop offset="0.166" stop-color="#ffc234"/><stop offset="0.379" stop-color="#ffc440" stop-opacity="0.694"/><stop offset="0.602" stop-color="#ffc74c" stop-opacity="0.399"/><stop offset="0.788" stop-color="#ffc955" stop-opacity="0.184"/><stop offset="0.925" stop-color="#ffca5a" stop-opacity="0.05"/><stop offset="1" stop-color="#ffca5c" stop-opacity="0"/></linearGradient></defs><title>post-it-pin-flat</title><g id="Capa_1" data-name="Capa 1"><g id="Grupo_7267" data-name="Grupo 7267"><path id="Trazado_53152" data-name="Trazado 53152" class="cls-1" d="M0,.029V584H505.1V505.075H584V0Z"/><path id="Trazado_53153" data-name="Trazado 53153" class="cls-2" d="M584,505.075H505.1v78.9Z"/></g><polygon class="cls-3" points="290.109 51.614 324.083 53.504 320.494 46.027 288.07 49.575 290.109 51.614"/><path class="cls-4" d="M299.97,36.39l3.319,3.262c-3.084,2.625-8.911,7.648-12.962,10.992l-.15.124a1.072,1.072,0,0,1-1.494-1.528l.272-.316C292.2,45.158,296.748,40.136,299.97,36.39Z"/><path class="cls-5" d="M296.808,27.954c4.236-3.181,6.434-4.32,10.605-7.5a1.279,1.279,0,0,0,.352-1,3.07,3.07,0,0,1,1.3-2.766c4.221-3.736,19.316,10.784,14.985,14.83a2.5,2.5,0,0,1-2.739,1.328c-.232-.029-.461-.084-.72-.133-3.3,4.347-4.593,6.682-7.72,10.8a10.933,10.933,0,0,1,.77,2.55,2.245,2.245,0,0,1-1.648,2.226,2.458,2.458,0,0,1-2.721-.617c-5.7-3.8-13.116-11.776-15.946-15.854-1.458-1.456-1.648-2.824-.583-4.019C293.759,26.663,295.173,26.7,296.808,27.954Z"/><ellipse class="cls-6" cx="316.627" cy="23.248" rx="1.33" ry="2.588" transform="translate(64.396 216.05) rotate(-41.593)"/><path class="cls-6" d="M308.418,20.532a21.356,21.356,0,0,0,1.323,3.012,17.006,17.006,0,0,0,1.811,2.765,21.255,21.255,0,0,0,2.357,2.359,18.182,18.182,0,0,0,2.718,1.969,18.337,18.337,0,0,1-2.874-1.774,21.638,21.638,0,0,1-2.575-2.222,17.67,17.67,0,0,1-2.085-2.719,22.189,22.189,0,0,1-1.613-3.045Z"/><path class="cls-6" d="M298.042,28.475a27.6,27.6,0,0,0,1.84,3.825,22.018,22.018,0,0,0,2.459,3.483,27.286,27.286,0,0,0,3.144,2.935,23.344,23.344,0,0,0,3.592,2.417,23.432,23.432,0,0,1-3.784-2.158,27.72,27.72,0,0,1-3.419-2.75,22.747,22.747,0,0,1-2.811-3.412,28.633,28.633,0,0,1-2.216-3.854Z"/></g></svg>