<svg xmlns="http://www.w3.org/2000/svg" viewBox="0 0 584.004 584.004"><defs><style>.cls-1{fill:#b2ffff;}.cls-2{fill:#c70613;}.cls-3{fill:#9c9c9b;}.cls-4{fill:#7cd7f8;}</style></defs><title>post-it-pin blue</title><g id="Capa_1" data-name="Capa 1"><path id="Trazado_53152" data-name="Trazado 53152" class="cls-1" d="M0,.029V584H505.1V505.075H584V0Z"/><path class="cls-2" d="M286.467,28.7c4.237-3.18,8.435-6.32,12.606-9.5a1.281,1.281,0,0,0,.352-1,2.579,2.579,0,0,1,4.332-2.344q5.742,5.677,11.445,11.4a2.594,2.594,0,0,1,.509,3.011,2.5,2.5,0,0,1-2.739,1.328c-.232-.029-.461-.084-.72-.132l-9.72,12.8a10.967,10.967,0,0,1,.77,2.55,2.246,2.246,0,0,1-1.648,2.226,2.458,2.458,0,0,1-2.721-.617q-2.913-2.868-5.81-5.752-5.073-5.047-10.136-10.1c-1.458-1.455-1.648-2.823-.583-4.019C283.419,27.406,284.832,27.44,286.467,28.7Z"/><path class="cls-3" d="M287.873,39.652l3.318,3.263L270.508,60.52l-.322-.307Z"/><path id="Trazado_53153" data-name="Trazado 53153" class="cls-4" d="M584,505.075H505.1v78.9Z"/></g></svg>